<?xml version="1.0" encoding="utf-8"?>
<!-- Generator: Adobe Illustrator 22.0.0, SVG Export Plug-In . SVG Version: 6.00 Build 0)  -->
<svg version="1.1" id="MAMAN" xmlns="http://www.w3.org/2000/svg" xmlns:xlink="http://www.w3.org/1999/xlink" x="0px" y="0px"
	 viewBox="0 0 800 5815.2" style="enable-background:new 0 0 800 5815.2;" xml:space="preserve">
<style type="text/css">
	.st0{font-family:'Menlo-Regular';}
	.st1{font-size:1251.9069px;}
	.st2{fill:#555760;}
	.st3{font-size:345.8784px;}
	.st4{fill:#8288A0;}
	.st5{fill:#A8A8A8;}
	.st6{font-size:288.4441px;}
	.st7{fill:#476949;}
	.st8{fill:#97A469;}
	.st9{font-size:80px;}
	.st10{fill:#99B815;}
	.st11{fill:#B27953;}
	.st12{fill:#D8E8C3;}
	.st13{fill:#68934F;}
	.st14{fill:url(#XMLID_2_);}
</style>
<g id="MONTAGNES_OMBRE_DROITE">
	<text id="OMD_5_" transform="matrix(0.2774 0 -0.9608 -0.2774 400.0319 4318.8774)" class="st0 st1">M</text>
	<text id="OMD_4_" transform="matrix(0.2774 0 -0.9608 -0.2774 183.2189 4266.9023)" class="st0 st1">M</text>
	<text id="OMD_3_" transform="matrix(0.2774 0 -0.9608 -0.2774 61.7247 4722.9399)" class="st0 st1">M</text>
	<text id="OMD_2_" transform="matrix(0.2774 0 -0.9608 -0.2774 -72.0329 4401.916)" class="st0 st1">M</text>
	<text id="OMD_1_" transform="matrix(0.2774 0 -0.9608 -0.2774 720.1912 4602.936)" class="st0 st1">M</text>
	<text id="OMD" transform="matrix(0.2774 0 -0.9608 -0.2774 498.2017 4518.9121)" class="st0 st1">M</text>
</g>
<g id="MONTAGNES_TOUTES">
	<text id="XMLID_158_" transform="matrix(1 0 0 1 61.6926 4722.9424)" class="st2 st0 st3">M</text>
	<text id="XMLID_134_" transform="matrix(1 0 0 1 399.9998 4318.8799)" class="st4 st0 st3">M</text>
	<text id="XMLID_170_" transform="matrix(1 0 0 1 183.1869 4266.9048)" class="st2 st0 st3">M</text>
	<text id="XMLID_143_" transform="matrix(1 0 0 1 -72.065 4401.9185)" class="st5 st0 st3">M</text>
	<text id="XMLID_164_" transform="matrix(1 0 0 1 720.1592 4602.9385)" class="st2 st0 st3">M</text>
	<text id="XMLID_149_" transform="matrix(1 0 0 1 498.1696 4518.9146)" class="st5 st0 st3">M</text>
</g>
<g id="ARBRES_OMBRE_DROITE">
	<text id="Droite_1_" transform="matrix(0.2774 0 -0.9608 -0.2774 436.1935 318.1236)" class="st0 st6">A</text>
	<text id="Droite_2_" transform="matrix(0.2774 0 -0.9608 -0.2774 510.1935 862.1237)" class="st0 st6">A</text>
	<text id="Droite_3_" transform="matrix(0.2774 0 -0.9608 -0.2774 354.1935 938.1237)" class="st0 st6">A</text>
	<text id="Droite_4_" transform="matrix(0.2774 0 -0.9608 -0.2774 456.1933 998.1237)" class="st0 st6">A</text>
	<text id="Droite_6_" transform="matrix(0.2774 0 -0.9608 -0.2774 193.7008 1449.6215)" class="st0 st6">A</text>
	<text id="Droite_7_" transform="matrix(0.2774 0 -0.9608 -0.2774 274.6967 1511.1184)" class="st0 st6">A</text>
	<text id="Droite_8_" transform="matrix(0.2774 0 -0.9608 -0.2774 162.2023 1580.115)" class="st0 st6">A</text>
	<text id="Droite_9_" transform="matrix(0.2774 0 -0.9608 -0.2774 321.1944 1637.1121)" class="st0 st6">A</text>
	<text id="Droite_10_" transform="matrix(0.2774 0 -0.9608 -0.2774 498.1855 1503.6188)" class="st0 st6">A</text>
	<text id="Droite_11_" transform="matrix(0.2774 0 -0.9608 -0.2774 541.6833 1352.1263)" class="st0 st6">A</text>
	<text id="Droite_12_" transform="matrix(0.2774 0 -0.9608 -0.2774 559.6824 1668.6105)" class="st0 st6">A</text>
	<text id="Droite_13_" transform="matrix(0.2774 0 -0.9608 -0.2774 660.1774 1599.614)" class="st0 st6">A</text>
	<text id="Droite_14_" transform="matrix(0.2774 0 -0.9608 -0.2774 633.1788 1496.1191)" class="st0 st6">A</text>
	<text id="Droite_15_" transform="matrix(0.2774 0 -0.9608 -0.2774 388.691 1653.6113)" class="st0 st6">A</text>
	<text id="Droite_16_" transform="matrix(0.2774 0 -0.9608 -0.2774 78.2065 1680.61)" class="st0 st6">A</text>
	<text id="Droite_17_" transform="matrix(0.2774 0 -0.9608 -0.2774 1.573814e-02 1580.115)" class="st0 st6">A</text>
	<text id="Droite_18_" transform="matrix(0.2774 0 -0.9608 -0.2774 588.1818 1800.6191)" class="st0 st6">A</text>
	<text id="Droite_19_" transform="matrix(0.2774 0 -0.9608 -0.2774 366.1929 1734.6224)" class="st0 st6">A</text>
	<text id="Droite_20_" transform="matrix(0.2774 0 -0.9608 -0.2774 768.1727 1680.61)" class="st0 st6">A</text>
	<text id="Droite_21_" transform="matrix(0.2774 0 -0.9608 -0.2774 720.1752 1785.6199)" class="st0 st6">A</text>
	<text id="Droite_22_" transform="matrix(0.2774 0 -0.9608 -0.2774 667.6778 1770.6206)" class="st0 st6">A</text>
	<text id="Droite_23_" transform="matrix(0.2774 0 -0.9608 -0.2774 183.2028 1743.6305)" class="st0 st6">A</text>
	<text id="Droite_24_" transform="matrix(0.2774 0 -0.9608 -0.2774 61.7088 1785.6199)" class="st0 st6">A</text>
	<text id="Droite_25_" transform="matrix(0.2774 0 -0.9608 -0.2774 366.1927 1832.1182)" class="st0 st6">A</text>
	<text id="Droite_26_" transform="matrix(0.2774 0 -0.9608 -0.2774 303.1935 1919.1237)" class="st0 st6">A</text>
	<text id="Droite_27_" transform="matrix(0.2774 0 -0.9608 -0.2774 360.1935 1895.1237)" class="st0 st6">A</text>
	<text id="Droite_28_" transform="matrix(0.2774 0 -0.9608 -0.2774 426.1935 2018.1237)" class="st0 st6">A</text>
	<text id="Droite_29_" transform="matrix(0.2774 0 -0.9608 -0.2774 240.1935 1973.1237)" class="st0 st6">A</text>
	<text id="Droite_30_" transform="matrix(0.2774 0 -0.9608 -0.2774 651.1852 1926.6246)" class="st0 st6">A</text>
	<text id="Droite_31_" transform="matrix(0.2774 0 -0.9608 -0.2774 318.1935 2030.1237)" class="st0 st6">A</text>
	<text id="Droite_32_" transform="matrix(0.2774 0 -0.9608 -0.2774 1.558841e-02 2088.6226)" class="st0 st6">A</text>
	<text id="Droite_33_" transform="matrix(0.2774 0 -0.9608 -0.2774 39.1912 1953.6241)" class="st0 st6">A</text>
	<text id="Droite_34_" transform="matrix(0.2774 0 -0.9608 -0.2774 510.1935 2154.6194)" class="st0 st6">A</text>
	<text id="Droite_35_" transform="matrix(0.2774 0 -0.9608 -0.2774 618.1863 2030.1237)" class="st0 st6">A</text>
	<text id="Droite_36_" transform="matrix(0.2774 0 -0.9608 -0.2774 541.6833 1926.6246)" class="st0 st6">A</text>
	<text id="Droite_37_" transform="matrix(0.2774 0 -0.9608 -0.2774 141.1941 2190.6147)" class="st0 st6">A</text>
	<text id="Droite_38_" transform="matrix(0.2774 0 -0.9608 -0.2774 624.1859 2221.6191)" class="st0 st6">A</text>
	<text id="Droite_39_" transform="matrix(0.2774 0 -0.9608 -0.2774 690.1826 2281.6165)" class="st0 st6">A</text>
	<text id="Droite_40_" transform="matrix(0.2774 0 -0.9608 -0.2774 702.182 2367.1121)" class="st0 st6">A</text>
	<text id="Droite_41_" transform="matrix(0.2774 0 -0.9608 -0.2774 660.1774 2469.1069)" class="st0 st6">A</text>
	<text id="Droite_42_" transform="matrix(0.2774 0 -0.9608 -0.2774 609.1863 2545.6033)" class="st0 st6">A</text>
	<text id="Droite_43_" transform="matrix(0.2774 0 -0.9608 -0.2774 240.193 2584.6104)" class="st0 st6">A</text>
	<text id="Droite_44_" transform="matrix(0.2774 0 -0.9608 -0.2774 61.7088 2242.6272)" class="st0 st6">A</text>
	<text id="Droite_45_" transform="matrix(0.2774 0 -0.9608 -0.2774 1.540816e-02 2319.1233)" class="st0 st6">A</text>
	<text id="Droite_46_" transform="matrix(0.2774 0 -0.9608 -0.2774 16.716 2409.1189)" class="st0 st6">A</text>
	<text id="Droite_47_" transform="matrix(0.2774 0 -0.9608 -0.2774 61.7086 2475.1155)" class="st0 st6">A</text>
	<text id="Droite_48_" transform="matrix(0.2774 0 -0.9608 -0.2774 129.2104 2533.6125)" class="st0 st6">A</text>
	<text id="Droite_49_" transform="matrix(0.2774 0 -0.9608 -0.2774 247.7045 2154.6191)" class="st0 st6">A</text>
	<text id="Droite_50_" transform="matrix(0.2774 0 -0.9608 -0.2774 609.1863 2136.1326)" class="st0 st6">A</text>
	<text id="Droite_51_" transform="matrix(0.2774 0 -0.9608 -0.2774 108.2114 2067.136)" class="st0 st6">A</text>
	<text id="Droite_53_" transform="matrix(0.2774 0 -0.9608 -0.2774 366.1928 2610.1089)" class="st0 st6">A</text>
	<text id="Droite_52_" transform="matrix(0.2774 0 -0.9608 -0.2774 108.2114 1909.6248)" class="st0 st6">A</text>
	<text id="Droite_54_" transform="matrix(0.2774 0 -0.9608 -0.2774 547.6829 2113.634)" class="st0 st6">A</text>
	<text id="Droite_55_" transform="matrix(0.2774 0 -0.9608 -0.2774 1.570857e-02 2533.6121)" class="st0 st6">A</text>
	<text id="Droite_56_" transform="matrix(0.2774 0 -0.9608 -0.2774 567.1901 2376.1206)" class="st0 st6">A</text>
	<text id="Droite_57_" transform="matrix(0.2774 0 -0.9608 -0.2774 768.1725 2469.1064)" class="st0 st6">A</text>
	<text id="Droite_58_" transform="matrix(0.2774 0 -0.9608 -0.2774 748.6821 2088.6221)" class="st0 st6">A</text>
	<text id="Droite_59_" transform="matrix(0.2774 0 -0.9608 -0.2774 -22.2807 1881.1246)" class="st0 st6">A</text>
	<text id="Droite_60_" transform="matrix(0.2774 0 -0.9608 -0.2774 595.6845 2739.1221)" class="st0 st6">A</text>
	<text id="Droite_61_" transform="matrix(0.2774 0 -0.9608 -0.2774 225.203 2713.6235)" class="st0 st6">A</text>
	<text id="Droite_62_" transform="matrix(0.2774 0 -0.9608 -0.2774 108.2112 2866.6157)" class="st0 st6">A</text>
	<text id="Droite_63_" transform="matrix(0.2774 0 -0.9608 -0.2774 595.6844 2647.6267)" class="st0 st6">A</text>
	<text id="Droite_64_" transform="matrix(0.2774 0 -0.9608 -0.2774 366.1928 2682.125)" class="st0 st6">A</text>
	<text id="Droite_65_" transform="matrix(0.2774 0 -0.9608 -0.2774 559.6823 2917.6133)" class="st0 st6">A</text>
	<text id="Droite_66_" transform="matrix(0.2774 0 -0.9608 -0.2774 366.1928 2782.6248)" class="st0 st6">A</text>
	<text id="Droite_67_" transform="matrix(0.2774 0 -0.9608 -0.2774 711.1811 2782.6245)" class="st0 st6">A</text>
	<text id="Droite_68_" transform="matrix(0.2774 0 -0.9608 -0.2774 774.178 2887.6191)" class="st0 st6">A</text>
	<text id="Droite_69_" transform="matrix(0.2774 0 -0.9608 -0.2774 730.6802 2682.1245)" class="st0 st6">A</text>
	<text id="Droite_70_" transform="matrix(0.2774 0 -0.9608 -0.2774 702.1818 3006.1135)" class="st0 st6">A</text>
	<text id="Droite_71_" transform="matrix(0.2774 0 -0.9608 -0.2774 660.1772 2857.6208)" class="st0 st6">A</text>
	<text id="Droite_72_" transform="matrix(0.2774 0 -0.9608 -0.2774 739.6796 2845.6213)" class="st0 st6">A</text>
	<text id="Droite_73_" transform="matrix(0.2774 0 -0.9608 -0.2774 759.1787 2965.6155)" class="st7 st0 st6">A</text>
	<text id="Droite_74_" transform="matrix(0.2774 0 -0.9608 -0.2774 529.6838 2998.6135)" class="st0 st6">A</text>
	<text id="Droite_75_" transform="matrix(0.2774 0 -0.9608 -0.2774 595.6844 3159.1089)" class="st0 st6">A</text>
	<text id="Droite_76_" transform="matrix(0.2774 0 -0.9608 -0.2774 702.1819 3127.6104)" class="st0 st6">A</text>
	<text id="Droite_77_" transform="matrix(0.2774 0 -0.9608 -0.2774 129.2103 3070.615)" class="st0 st6">A</text>
	
</g>
<g id="ARBRES_TOUS">
	<text id="XMLID_15_" transform="matrix(1 0 0 1 436.1777 318.125)" class="st8 st0 st9">A</text>
	<text id="XMLID_16_" transform="matrix(1 0 0 1 510.1777 862.125)" class="st10 st0 st9">A</text>
	<text id="XMLID_17_" transform="matrix(1 0 0 1 354.1777 938.125)" class="st8 st0 st9">A</text>
	<text id="XMLID_18_" transform="matrix(1 0 0 1 456.1776 998.125)" class="st11 st0 st9">A</text>
	<text id="XMLID_30_" transform="matrix(1 0 0 1 78.1908 1680.6113)" class="st12 st0 st9">A</text>
	<text id="XMLID_39_" transform="matrix(1 0 0 1 366.1769 1832.1195)" class="st13 st0 st9">A</text>
	<text id="XMLID_20_" transform="matrix(1 0 0 1 193.685 1449.6228)" class="st7 st0 st9">A</text>
	<text id="XMLID_24_" transform="matrix(1 0 0 1 498.1697 1503.6201)" class="st7 st0 st9">A</text>
	<text id="XMLID_25_" transform="matrix(1 0 0 1 541.6676 1352.1277)" class="st8 st0 st9">A</text>
	<text id="XMLID_21_" transform="matrix(1 0 0 1 274.6809 1511.1198)" class="st7 st0 st9">A</text>
	<text id="XMLID_28_" transform="matrix(1 0 0 1 633.163 1496.1205)" class="st7 st0 st9">A</text>
	<text id="XMLID_22_" transform="matrix(1 0 0 1 162.1866 1580.1163)" class="st7 st0 st9">A</text>
	<text id="XMLID_27_" transform="matrix(1 0 0 1 660.1616 1599.6154)" class="st7 st0 st9">A</text>
	<text id="XMLID_31_" transform="matrix(1 0 0 1 -3.051758e-05 1580.1163)" class="st7 st0 st9">A</text>
	<text id="XMLID_34_" transform="matrix(1 0 0 1 768.157 1680.6113)" class="st7 st0 st9">A</text>
	<text id="XMLID_26_" transform="matrix(1 0 0 1 559.6667 1668.6118)" class="st7 st0 st9">A</text>
	<text id="XMLID_29_" transform="matrix(1 0 0 1 388.6752 1653.6127)" class="st7 st0 st9">A</text>
	<text id="XMLID_23_" transform="matrix(1 0 0 1 321.1786 1637.1134)" class="st7 st0 st9">A</text>
	<text id="XMLID_37_" transform="matrix(1 0 0 1 183.187 1743.6318)" class="st12 st0 st9">A</text>
	<text id="XMLID_32_" transform="matrix(1 0 0 1 588.166 1800.6205)" class="st11 st0 st9">A</text>
	<text id="XMLID_33_" transform="matrix(1 0 0 1 366.1771 1734.6238)" class="st10 st0 st9">A</text>
	<text id="XMLID_35_" transform="matrix(1 0 0 1 720.1594 1785.6212)" class="st7 st0 st9">A</text>
	<text id="XMLID_36_" transform="matrix(1 0 0 1 667.662 1770.6219)" class="st7 st0 st9">A</text>
	<text id="XMLID_38_" transform="matrix(1 0 0 1 61.6931 1785.6212)" class="st7 st0 st9">A</text>
	<text id="XMLID_40_" transform="matrix(1 0 0 1 303.1777 1919.125)" class="st7 st0 st9">A</text>
	<text id="XMLID_41_" transform="matrix(1 0 0 1 360.1777 1895.125)" class="st7 st0 st9">A</text>
	<text id="XMLID_42_" transform="matrix(1 0 0 1 426.1777 2018.125)" class="st7 st0 st9">A</text>
	<text id="XMLID_43_" transform="matrix(1 0 0 1 240.1777 1973.125)" class="st7 st0 st9">A</text>
	<text id="XMLID_44_" transform="matrix(1 0 0 1 651.1694 1926.626)" class="st10 st0 st9">A</text>
	<text id="XMLID_45_" transform="matrix(1 0 0 1 318.1777 2030.125)" class="st7 st0 st9">A</text>
	<text id="XMLID_46_" transform="matrix(1 0 0 1 -1.831055e-04 2088.624)" class="st7 st0 st9">A</text>
	<text id="XMLID_47_" transform="matrix(1 0 0 1 39.1755 1953.6255)" class="st13 st0 st9">A</text>
	<text id="XMLID_48_" transform="matrix(1 0 0 1 510.1777 2154.6208)" class="st7 st0 st9">A</text>
	<text id="XMLID_77_" transform="matrix(1 0 0 1 247.6887 2154.6206)" class="st10 st0 st9">A</text>
	<text id="XMLID_79_" transform="matrix(1 0 0 1 609.1707 2136.134)" class="st7 st0 st9">A</text>
	<text id="XMLID_81_" transform="matrix(1 0 0 1 108.1957 2067.1375)" class="st10 st0 st9">A</text>
	<text id="XMLID_87_" transform="matrix(1 0 0 1 547.6671 2113.6353)" class="st7 st0 st9">A</text>
	<text id="XMLID_95_" transform="matrix(1 0 0 1 748.6664 2088.6235)" class="st7 st0 st9">A</text>
	<text id="XMLID_49_" transform="matrix(1 0 0 1 618.1705 2030.125)" class="st12 st0 st9">A</text>
	<text id="XMLID_50_" transform="matrix(1 0 0 1 541.6675 1926.626)" class="st11 st0 st9">A</text>
	<text id="XMLID_51_" transform="matrix(1 0 0 1 141.1783 2190.6162)" class="st10 st0 st9">A</text>
	<text id="XMLID_97_" transform="matrix(1 0 0 1 -22.2964 1881.126)" class="st7 st0 st9">A</text>
	<text id="XMLID_83_" transform="matrix(1 0 0 1 108.1956 1909.6261)" class="st10 st0 st9">A</text>
	<text id="XMLID_55_" transform="matrix(1 0 0 1 624.1702 2221.6206)" class="st12 st0 st9">A</text>
	<text id="XMLID_57_" transform="matrix(1 0 0 1 690.1669 2281.6179)" class="st11 st0 st9">A</text>
	<text id="XMLID_59_" transform="matrix(1 0 0 1 702.1663 2367.1135)" class="st7 st0 st9">A</text>
	<text id="XMLID_61_" transform="matrix(1 0 0 1 660.1616 2469.1084)" class="st7 st0 st9">A</text>
	<text id="XMLID_63_" transform="matrix(1 0 0 1 609.1705 2545.6047)" class="st7 st0 st9">A</text>
	<text id="XMLID_65_" transform="matrix(1 0 0 1 240.1772 2584.6118)" class="st7 st0 st9">A</text>
	<text id="XMLID_67_" transform="matrix(1 0 0 1 61.693 2242.6287)" class="st7 st0 st9">A</text>
	<text id="XMLID_69_" transform="matrix(1 0 0 1 -3.662109e-04 2319.1248)" class="st7 st0 st9">A</text>
	<text id="XMLID_71_" transform="matrix(1 0 0 1 16.7002 2409.1204)" class="st11 st0 st9">A</text>
	<text id="XMLID_73_" transform="matrix(1 0 0 1 61.6928 2475.1169)" class="st12 st0 st9">A</text>
	<text id="XMLID_75_" transform="matrix(1 0 0 1 129.1946 2533.614)" class="st7 st0 st9">A</text>
	<text id="XMLID_85_" transform="matrix(1 0 0 1 366.177 2610.1104)" class="st7 st0 st9">A</text>
	<text id="XMLID_89_" transform="matrix(1 0 0 1 -6.103516e-05 2533.6135)" class="st7 st0 st9">A</text>
	<text id="XMLID_91_" transform="matrix(1 0 0 1 567.1744 2376.1221)" class="st11 st0 st9">A</text>
	<text id="XMLID_93_" transform="matrix(1 0 0 1 768.1568 2469.1079)" class="st7 st0 st9">A</text>
	<text id="XMLID_99_" transform="matrix(1 0 0 1 595.6688 2739.1235)" class="st11 st0 st9">A</text>
	<text id="XMLID_101_" transform="matrix(1 0 0 1 225.1873 2713.625)" class="st7 st0 st9">A</text>
	<text id="XMLID_103_" transform="matrix(1 0 0 1 108.1954 2866.6172)" class="st7 st0 st9">A</text>
	<text id="XMLID_105_" transform="matrix(1 0 0 1 595.6687 2647.6282)" class="st7 st0 st9">A</text>
	<text id="XMLID_107_" transform="matrix(1 0 0 1 366.177 2682.1265)" class="st7 st0 st9">A</text>
	<text id="XMLID_111_" transform="matrix(1 0 0 1 366.177 2782.6262)" class="st7 st0 st9">A</text>
	<text id="XMLID_113_" transform="matrix(1 0 0 1 711.1654 2782.626)" class="st7 st0 st9">A</text>
	<text id="XMLID_117_" transform="matrix(1 0 0 1 730.6644 2682.126)" class="st11 st0 st9">A</text>
	<text id="XMLID_119_" transform="matrix(1 0 0 1 702.1661 3006.115)" class="st7 st0 st9">A</text>
	<text id="XMLID_121_" transform="matrix(1 0 0 1 660.1614 2857.6223)" class="st7 st0 st9">A</text>
	<text id="XMLID_123_" transform="matrix(1 0 0 1 739.6639 2845.6228)" class="st7 st0 st9">A</text>
	<text id="XMLID_133_" transform="matrix(1 0 0 1 129.1946 3070.6165)" class="st11 st0 st9">A</text>
	<text id="XMLID_115_" transform="matrix(1 0 0 1 774.1622 2887.6206)" class="st7 st0 st9">A</text>
	<text id="XMLID_109_" transform="matrix(1 0 0 1 559.6665 2917.6147)" class="st7 st0 st9">A</text>
	<text id="XMLID_125_" transform="matrix(1 0 0 1 759.163 2965.6169)" class="st7 st0 st9">A</text>
	<text id="XMLID_127_" transform="matrix(1 0 0 1 529.668 2998.615)" class="st7 st0 st9">A</text>
	<text id="XMLID_129_" transform="matrix(1 0 0 1 595.6687 3159.1104)" class="st12 st0 st9">A</text>
	<text id="XMLID_131_" transform="matrix(1 0 0 1 702.1662 3127.6118)" class="st7 st0 st9">A</text>
</g>
<g id="mordor">
	<linearGradient id="XMLID_2_" gradientUnits="userSpaceOnUse" x1="399.9998" y1="3390.7202" x2="399.9998" y2="5815.1577">
		<stop  offset="0" style="stop-color:#FFFFFF"/>
		<stop  offset="0.5532" style="stop-color:#242422"/>
		<stop  offset="1" style="stop-color:#000000"/>
		<stop  offset="1" style="stop-color:#000000"/>
	</linearGradient>
	<rect id="XMLID_155_" x="0" y="3390.7" class="st14" width="800" height="2424.4"/>
</g>
</svg>
