<?xml version="1.0" encoding="utf-8"?>
<!-- Generator: Adobe Illustrator 22.0.0, SVG Export Plug-In . SVG Version: 6.00 Build 0)  -->
<svg version="1.1" id="MAMAN" xmlns="http://www.w3.org/2000/svg" xmlns:xlink="http://www.w3.org/1999/xlink" x="0px" y="0px"
	 viewBox="0 0 800 5815.2" style="enable-background:new 0 0 800 5815.2;" xml:space="preserve">
<style type="text/css">
	.st0{font-family:'Menlo-Regular';}
	.st1{font-size:1251.9069px;}
	.st2{fill:#555760;}
	.st3{font-size:345.8784px;}
	.st4{fill:#8288A0;}
	.st5{fill:#A8A8A8;}
	.st6{font-size:288.4441px;}
	.st7{fill:#97A469;}
	.st8{font-size:80px;}
	.st9{fill:#99B815;}
	.st10{fill:#B27953;}
	.st11{fill:#D8E8C3;}
	.st12{fill:#68934F;}
	.st13{fill:#476949;}
	.st14{fill:url(#XMLID_2_);}
</style>
<g id="MONTAGNES_OMBRE_GAUCHE">
	<text id="OMG_5_" transform="matrix(0.2774 0 0.9608 -0.2774 399.9716 4318.877)" class="st0 st1">M</text>
	<text id="OMG_2_" transform="matrix(0.2774 0 0.9608 -0.2774 183.1586 4266.9023)" class="st0 st1">M</text>
	<text id="OMG_4_" transform="matrix(0.2774 0 0.9608 -0.2774 61.6643 4722.9399)" class="st0 st1">M</text>
	<text id="OMG_3_" transform="matrix(0.2774 0 0.9608 -0.2774 -72.0933 4401.916)" class="st0 st1">M</text>
	<text id="OMG_1_" transform="matrix(0.2774 0 0.9608 -0.2774 498.1413 4518.9121)" class="st0 st1">M</text>
	<text id="OMG" transform="matrix(0.2774 0 0.9608 -0.2774 720.1309 4602.936)" class="st0 st1">M</text>
</g>
<g id="MONTAGNES_TOUTES">
	<text id="XMLID_158_" transform="matrix(1 0 0 1 61.6926 4722.9424)" class="st2 st0 st3">M</text>
	<text id="XMLID_134_" transform="matrix(1 0 0 1 399.9998 4318.8799)" class="st4 st0 st3">M</text>
	<text id="XMLID_170_" transform="matrix(1 0 0 1 183.1869 4266.9048)" class="st2 st0 st3">M</text>
	<text id="XMLID_143_" transform="matrix(1 0 0 1 -72.065 4401.9185)" class="st5 st0 st3">M</text>
	<text id="XMLID_164_" transform="matrix(1 0 0 1 720.1592 4602.9385)" class="st2 st0 st3">M</text>
	<text id="XMLID_149_" transform="matrix(1 0 0 1 498.1696 4518.9146)" class="st5 st0 st3">M</text>
</g>
<g id="ARBRES_OMBRE_GAUCHE">
	<text id="Gauche_1_" transform="matrix(0.2774 0 0.9608 -0.2774 436.1614 318.1234)" class="st0 st6">A</text>
	<text id="Gauche_2_" transform="matrix(0.2774 0 0.9608 -0.2774 510.1614 862.1234)" class="st0 st6">A</text>
	<text id="Gauche_3_" transform="matrix(0.2774 0 0.9608 -0.2774 354.1614 938.1234)" class="st0 st6">A</text>
	<text id="Gauche_4_" transform="matrix(0.2774 0 0.9608 -0.2774 456.1613 998.1234)" class="st0 st6">A</text>
	<text id="Gauche_6_" transform="matrix(0.2774 0 0.9608 -0.2774 193.6687 1449.6212)" class="st0 st6">A</text>
	<text id="Gauche_7_" transform="matrix(0.2774 0 0.9608 -0.2774 274.6646 1511.1182)" class="st0 st6">A</text>
	<text id="Gauche_8_" transform="matrix(0.2774 0 0.9608 -0.2774 162.1703 1580.1147)" class="st0 st6">A</text>
	<text id="Gauche_9_" transform="matrix(0.2774 0 0.9608 -0.2774 321.1623 1637.1118)" class="st0 st6">A</text>
	<text id="Gauche_10_" transform="matrix(0.2774 0 0.9608 -0.2774 498.1535 1503.6185)" class="st0 st6">A</text>
	<text id="Gauche_11_" transform="matrix(0.2774 0 0.9608 -0.2774 541.6513 1352.1261)" class="st0 st6">A</text>
	<text id="Gauche_12_" transform="matrix(0.2774 0 0.9608 -0.2774 559.6504 1668.6102)" class="st0 st6">A</text>
	<text id="Gauche_13_" transform="matrix(0.2774 0 0.9608 -0.2774 660.1454 1599.6138)" class="st0 st6">A</text>
	<text id="Gauche_14_" transform="matrix(0.2774 0 0.9608 -0.2774 633.1467 1496.1189)" class="st0 st6">A</text>
	<text id="Gauche_15_" transform="matrix(0.2774 0 0.9608 -0.2774 388.6589 1653.6111)" class="st0 st6">A</text>
	<text id="Gauche_16_" transform="matrix(0.2774 0 0.9608 -0.2774 78.1745 1680.6097)" class="st0 st6">A</text>
	<text id="Gauche_17_" transform="matrix(0.2774 0 0.9608 -0.2774 -1.632369e-02 1580.1147)" class="st0 st6">A</text>
	<text id="Gauche_18_" transform="matrix(0.2774 0 0.9608 -0.2774 588.1497 1800.6189)" class="st0 st6">A</text>
	<text id="Gauche_19_" transform="matrix(0.2774 0 0.9608 -0.2774 366.1608 1734.6222)" class="st0 st6">A</text>
	<text id="Gauche_20_" transform="matrix(0.2774 0 0.9608 -0.2774 768.1407 1680.6097)" class="st0 st6">A</text>
	<text id="Gauche_21_" transform="matrix(0.2774 0 0.9608 -0.2774 720.1431 1785.6196)" class="st0 st6">A</text>
	<text id="Gauche_22_" transform="matrix(0.2774 0 0.9608 -0.2774 667.6458 1770.6204)" class="st0 st6">A</text>
	<text id="Gauche_23_" transform="matrix(0.2774 0 0.9608 -0.2774 183.1707 1743.6302)" class="st0 st6">A</text>
	<text id="Gauche_24_" transform="matrix(0.2774 0 0.9608 -0.2774 61.6768 1785.6196)" class="st0 st6">A</text>
	<text id="Gauche_25_" transform="matrix(0.2774 0 0.9608 -0.2774 366.1606 1832.1179)" class="st0 st6">A</text>
	<text id="Gauche_26_" transform="matrix(0.2774 0 0.9608 -0.2774 303.1614 1919.1234)" class="st0 st6">A</text>
	<text id="Gauche_27_" transform="matrix(0.2774 0 0.9608 -0.2774 360.1614 1895.1234)" class="st0 st6">A</text>
	<text id="Gauche_29_" transform="matrix(0.2774 0 0.9608 -0.2774 240.1614 1973.1234)" class="st0 st6">A</text>
	<text id="Gauche_30_" transform="matrix(0.2774 0 0.9608 -0.2774 651.1532 1926.6244)" class="st0 st6">A</text>
	<text id="Gauche_33_" transform="matrix(0.2774 0 0.9608 -0.2774 39.1592 1953.6239)" class="st0 st6">A</text>
	<text id="Gauche_36_" transform="matrix(0.2774 0 0.9608 -0.2774 541.6512 1926.6244)" class="st0 st6">A</text>
	<text id="Gauche_28_" transform="matrix(0.2774 0 0.9608 -0.2774 426.1614 2018.1234)" class="st0 st6">A</text>
	<text id="Gauche_31_" transform="matrix(0.2774 0 0.9608 -0.2774 318.1614 2030.1234)" class="st0 st6">A</text>
	<text id="Gauche_32_" transform="matrix(0.2774 0 0.9608 -0.2774 -1.647627e-02 2088.6223)" class="st0 st6">A</text>
	<text id="Gauche_34_" transform="matrix(0.2774 0 0.9608 -0.2774 510.1614 2154.6191)" class="st0 st6">A</text>
	<text id="Gauche_35_" transform="matrix(0.2774 0 0.9608 -0.2774 618.1542 2030.1234)" class="st0 st6">A</text>
	<text id="Gauche_37_" transform="matrix(0.2774 0 0.9608 -0.2774 141.162 2190.6145)" class="st0 st6">A</text>
	<text id="Gauche_38_" transform="matrix(0.2774 0 0.9608 -0.2774 624.1539 2221.6189)" class="st0 st6">A</text>
	<text id="Gauche_39_" transform="matrix(0.2774 0 0.9608 -0.2774 690.1506 2281.6162)" class="st0 st6">A</text>
	<text id="Gauche_40_" transform="matrix(0.2774 0 0.9608 -0.2774 702.15 2367.1118)" class="st0 st6">A</text>
	<text id="Gauche_41_" transform="matrix(0.2774 0 0.9608 -0.2774 660.1453 2469.1067)" class="st0 st6">A</text>
	<text id="Gauche_42_" transform="matrix(0.2774 0 0.9608 -0.2774 609.1543 2545.603)" class="st0 st6">A</text>
	<text id="Gauche_43_" transform="matrix(0.2774 0 0.9608 -0.2774 240.1609 2584.6101)" class="st0 st6">A</text>
	<text id="Gauche_44_" transform="matrix(0.2774 0 0.9608 -0.2774 61.6767 2242.627)" class="st0 st6">A</text>
	<text id="Gauche_45_" transform="matrix(0.2774 0 0.9608 -0.2774 -1.665938e-02 2319.123)" class="st0 st6">A</text>
	<text id="Gauche_46_" transform="matrix(0.2774 0 0.9608 -0.2774 16.6839 2409.1187)" class="st0 st6">A</text>
	<text id="Gauche_47_" transform="matrix(0.2774 0 0.9608 -0.2774 61.6765 2475.1152)" class="st0 st6">A</text>
	<text id="Gauche_48_" transform="matrix(0.2774 0 0.9608 -0.2774 129.1783 2533.6123)" class="st0 st6">A</text>
	<text id="Gauche_49_" transform="matrix(0.2774 0 0.9608 -0.2774 247.6724 2154.6189)" class="st0 st6">A</text>
	<text id="Gauche_50_" transform="matrix(0.2774 0 0.9608 -0.2774 609.1544 2136.1323)" class="st0 st6">A</text>
	<text id="Gauche_51_" transform="matrix(0.2774 0 0.9608 -0.2774 108.1794 2067.1357)" class="st0 st6">A</text>
	<text id="Gauche_52_" transform="matrix(0.2774 0 0.9608 -0.2774 108.1793 1909.6245)" class="st0 st6">A</text>
	<text id="Gauche_53_" transform="matrix(0.2774 0 0.9608 -0.2774 366.1607 2610.1086)" class="st0 st6">A</text>
	<text id="Gauche_54_" transform="matrix(0.2774 0 0.9608 -0.2774 547.6508 2113.6338)" class="st0 st6">A</text>
	<text id="Gauche_55_" transform="matrix(0.2774 0 0.9608 -0.2774 -1.635420e-02 2533.6118)" class="st0 st6">A</text>
	<text id="Gauche_56_" transform="matrix(0.2774 0 0.9608 -0.2774 567.1581 2376.1204)" class="st0 st6">A</text>
	<text id="Gauche_57_" transform="matrix(0.2774 0 0.9608 -0.2774 768.1405 2469.1062)" class="st0 st6">A</text>
	<text id="Gauche_58_" transform="matrix(0.2774 0 0.9608 -0.2774 748.65 2088.6218)" class="st0 st6">A</text>
	<text id="Gauche_59_" transform="matrix(0.2774 0 0.9608 -0.2774 -22.3127 1881.1244)" class="st0 st6">A</text>
	<text id="Gauche_60_" transform="matrix(0.2774 0 0.9608 -0.2774 595.6525 2739.1218)" class="st0 st6">A</text>
	<text id="Gauche_61_" transform="matrix(0.2774 0 0.9608 -0.2774 225.171 2713.6233)" class="st0 st6">A</text>
	<text id="Gauche_62_" transform="matrix(0.2774 0 0.9608 -0.2774 108.1791 2866.6155)" class="st0 st6">A</text>
	<text id="Gauche_63_" transform="matrix(0.2774 0 0.9608 -0.2774 595.6524 2647.6265)" class="st0 st6">A</text>
	<text id="Gauche_64_" transform="matrix(0.2774 0 0.9608 -0.2774 366.1607 2682.1248)" class="st0 st6">A</text>
	<text id="Gauche_65_" transform="matrix(0.2774 0 0.9608 -0.2774 559.6502 2917.613)" class="st0 st6">A</text>
	<text id="Gauche_66_" transform="matrix(0.2774 0 0.9608 -0.2774 366.1607 2782.6245)" class="st0 st6">A</text>
	<text id="Gauche_67_" transform="matrix(0.2774 0 0.9608 -0.2774 711.1491 2782.6243)" class="st0 st6">A</text>
	<text id="Gauche_68_" transform="matrix(0.2774 0 0.9608 -0.2774 774.1459 2887.6189)" class="st0 st6">A</text>
	<text id="Gauche_69_" transform="matrix(0.2774 0 0.9608 -0.2774 730.6481 2682.1243)" class="st0 st6">A</text>
	<text id="Gauche_70_" transform="matrix(0.2774 0 0.9608 -0.2774 702.1498 3006.1133)" class="st0 st6">A</text>
	<text id="Gauche_71_" transform="matrix(0.2774 0 0.9608 -0.2774 660.1451 2857.6206)" class="st0 st6">A</text>
	<text id="Gauche_72_" transform="matrix(0.2774 0 0.9608 -0.2774 739.6476 2845.6211)" class="st0 st6">A</text>
	<text id="Gauche_73_" transform="matrix(0.2774 0 0.9608 -0.2774 759.1467 2965.6152)" class="st0 st6">A</text>
	<text id="Gauche_74_" transform="matrix(0.2774 0 0.9608 -0.2774 529.6517 2998.6133)" class="st0 st6">A</text>
	<text id="Gauche_75_" transform="matrix(0.2774 0 0.9608 -0.2774 595.6524 3159.1086)" class="st0 st6">A</text>
	<text id="Gauche_76_" transform="matrix(0.2774 0 0.9608 -0.2774 702.1499 3127.6101)" class="st0 st6">A</text>
	<text id="Gauche_77_" transform="matrix(0.2774 0 0.9608 -0.2774 129.1783 3070.6147)" class="st0 st6">A</text>
</g>
<g id="ARBRES_TOUS">
	<text id="XMLID_15_" transform="matrix(1 0 0 1 436.1777 318.125)" class="st7 st0 st8">A</text>
	<text id="XMLID_16_" transform="matrix(1 0 0 1 510.1777 862.125)" class="st9 st0 st8">A</text>
	<text id="XMLID_17_" transform="matrix(1 0 0 1 354.1777 938.125)" class="st7 st0 st8">A</text>
	<text id="XMLID_18_" transform="matrix(1 0 0 1 456.1776 998.125)" class="st10 st0 st8">A</text>
	<text id="XMLID_30_" transform="matrix(1 0 0 1 78.1908 1680.6113)" class="st11 st0 st8">A</text>
	<text id="XMLID_39_" transform="matrix(1 0 0 1 366.1769 1832.1195)" class="st12 st0 st8">A</text>
	<text id="XMLID_20_" transform="matrix(1 0 0 1 193.685 1449.6228)" class="st13 st0 st8">A</text>
	<text id="XMLID_24_" transform="matrix(1 0 0 1 498.1697 1503.6201)" class="st13 st0 st8">A</text>
	<text id="XMLID_25_" transform="matrix(1 0 0 1 541.6676 1352.1277)" class="st7 st0 st8">A</text>
	<text id="XMLID_21_" transform="matrix(1 0 0 1 274.6809 1511.1198)" class="st13 st0 st8">A</text>
	<text id="XMLID_28_" transform="matrix(1 0 0 1 633.163 1496.1205)" class="st13 st0 st8">A</text>
	<text id="XMLID_22_" transform="matrix(1 0 0 1 162.1866 1580.1163)" class="st13 st0 st8">A</text>
	<text id="XMLID_27_" transform="matrix(1 0 0 1 660.1616 1599.6154)" class="st13 st0 st8">A</text>
	<text id="XMLID_31_" transform="matrix(1 0 0 1 -3.051758e-05 1580.1163)" class="st13 st0 st8">A</text>
	<text id="XMLID_34_" transform="matrix(1 0 0 1 768.157 1680.6113)" class="st13 st0 st8">A</text>
	<text id="XMLID_26_" transform="matrix(1 0 0 1 559.6667 1668.6118)" class="st13 st0 st8">A</text>
	<text id="XMLID_29_" transform="matrix(1 0 0 1 388.6752 1653.6127)" class="st13 st0 st8">A</text>
	<text id="XMLID_23_" transform="matrix(1 0 0 1 321.1786 1637.1134)" class="st13 st0 st8">A</text>
	<text id="XMLID_37_" transform="matrix(1 0 0 1 183.187 1743.6318)" class="st11 st0 st8">A</text>
	<text id="XMLID_32_" transform="matrix(1 0 0 1 588.166 1800.6205)" class="st10 st0 st8">A</text>
	<text id="XMLID_33_" transform="matrix(1 0 0 1 366.1771 1734.6238)" class="st9 st0 st8">A</text>
	<text id="XMLID_35_" transform="matrix(1 0 0 1 720.1594 1785.6212)" class="st13 st0 st8">A</text>
	<text id="XMLID_36_" transform="matrix(1 0 0 1 667.662 1770.6219)" class="st13 st0 st8">A</text>
	<text id="XMLID_38_" transform="matrix(1 0 0 1 61.6931 1785.6212)" class="st13 st0 st8">A</text>
	<text id="XMLID_40_" transform="matrix(1 0 0 1 303.1777 1919.125)" class="st13 st0 st8">A</text>
	<text id="XMLID_41_" transform="matrix(1 0 0 1 360.1777 1895.125)" class="st13 st0 st8">A</text>
	<text id="XMLID_42_" transform="matrix(1 0 0 1 426.1777 2018.125)" class="st13 st0 st8">A</text>
	<text id="XMLID_43_" transform="matrix(1 0 0 1 240.1777 1973.125)" class="st13 st0 st8">A</text>
	<text id="XMLID_44_" transform="matrix(1 0 0 1 651.1694 1926.626)" class="st9 st0 st8">A</text>
	<text id="XMLID_45_" transform="matrix(1 0 0 1 318.1777 2030.125)" class="st13 st0 st8">A</text>
	<text id="XMLID_46_" transform="matrix(1 0 0 1 -1.831055e-04 2088.624)" class="st13 st0 st8">A</text>
	<text id="XMLID_47_" transform="matrix(1 0 0 1 39.1755 1953.6255)" class="st12 st0 st8">A</text>
	<text id="XMLID_48_" transform="matrix(1 0 0 1 510.1777 2154.6208)" class="st13 st0 st8">A</text>
	<text id="XMLID_77_" transform="matrix(1 0 0 1 247.6887 2154.6206)" class="st9 st0 st8">A</text>
	<text id="XMLID_79_" transform="matrix(1 0 0 1 609.1707 2136.134)" class="st13 st0 st8">A</text>
	<text id="XMLID_81_" transform="matrix(1 0 0 1 108.1957 2067.1375)" class="st9 st0 st8">A</text>
	<text id="XMLID_87_" transform="matrix(1 0 0 1 547.6671 2113.6353)" class="st13 st0 st8">A</text>
	<text id="XMLID_95_" transform="matrix(1 0 0 1 748.6664 2088.6235)" class="st13 st0 st8">A</text>
	<text id="XMLID_49_" transform="matrix(1 0 0 1 618.1705 2030.125)" class="st11 st0 st8">A</text>
	<text id="XMLID_50_" transform="matrix(1 0 0 1 541.6675 1926.626)" class="st10 st0 st8">A</text>
	<text id="XMLID_51_" transform="matrix(1 0 0 1 141.1783 2190.6162)" class="st9 st0 st8">A</text>
	<text id="XMLID_97_" transform="matrix(1 0 0 1 -22.2964 1881.126)" class="st13 st0 st8">A</text>
	<text id="XMLID_83_" transform="matrix(1 0 0 1 108.1956 1909.6261)" class="st9 st0 st8">A</text>
	<text id="XMLID_55_" transform="matrix(1 0 0 1 624.1702 2221.6206)" class="st11 st0 st8">A</text>
	<text id="XMLID_57_" transform="matrix(1 0 0 1 690.1669 2281.6179)" class="st10 st0 st8">A</text>
	<text id="XMLID_59_" transform="matrix(1 0 0 1 702.1663 2367.1135)" class="st13 st0 st8">A</text>
	<text id="XMLID_61_" transform="matrix(1 0 0 1 660.1616 2469.1084)" class="st13 st0 st8">A</text>
	<text id="XMLID_63_" transform="matrix(1 0 0 1 609.1705 2545.6047)" class="st13 st0 st8">A</text>
	<text id="XMLID_65_" transform="matrix(1 0 0 1 240.1772 2584.6118)" class="st13 st0 st8">A</text>
	<text id="XMLID_67_" transform="matrix(1 0 0 1 61.693 2242.6287)" class="st13 st0 st8">A</text>
	<text id="XMLID_69_" transform="matrix(1 0 0 1 -3.662109e-04 2319.1248)" class="st13 st0 st8">A</text>
	<text id="XMLID_71_" transform="matrix(1 0 0 1 16.7002 2409.1204)" class="st10 st0 st8">A</text>
	<text id="XMLID_73_" transform="matrix(1 0 0 1 61.6928 2475.1169)" class="st11 st0 st8">A</text>
	<text id="XMLID_75_" transform="matrix(1 0 0 1 129.1946 2533.614)" class="st13 st0 st8">A</text>
	<text id="XMLID_85_" transform="matrix(1 0 0 1 366.177 2610.1104)" class="st13 st0 st8">A</text>
	<text id="XMLID_89_" transform="matrix(1 0 0 1 -6.103516e-05 2533.6135)" class="st13 st0 st8">A</text>
	<text id="XMLID_91_" transform="matrix(1 0 0 1 567.1744 2376.1221)" class="st10 st0 st8">A</text>
	<text id="XMLID_93_" transform="matrix(1 0 0 1 768.1568 2469.1079)" class="st13 st0 st8">A</text>
	<text id="XMLID_99_" transform="matrix(1 0 0 1 595.6688 2739.1235)" class="st10 st0 st8">A</text>
	<text id="XMLID_101_" transform="matrix(1 0 0 1 225.1873 2713.625)" class="st13 st0 st8">A</text>
	<text id="XMLID_103_" transform="matrix(1 0 0 1 108.1954 2866.6172)" class="st13 st0 st8">A</text>
	<text id="XMLID_105_" transform="matrix(1 0 0 1 595.6687 2647.6282)" class="st13 st0 st8">A</text>
	<text id="XMLID_107_" transform="matrix(1 0 0 1 366.177 2682.1265)" class="st13 st0 st8">A</text>
	<text id="XMLID_111_" transform="matrix(1 0 0 1 366.177 2782.6262)" class="st13 st0 st8">A</text>
	<text id="XMLID_113_" transform="matrix(1 0 0 1 711.1654 2782.626)" class="st13 st0 st8">A</text>
	<text id="XMLID_117_" transform="matrix(1 0 0 1 730.6644 2682.126)" class="st10 st0 st8">A</text>
	<text id="XMLID_119_" transform="matrix(1 0 0 1 702.1661 3006.115)" class="st13 st0 st8">A</text>
	<text id="XMLID_121_" transform="matrix(1 0 0 1 660.1614 2857.6223)" class="st13 st0 st8">A</text>
	<text id="XMLID_123_" transform="matrix(1 0 0 1 739.6639 2845.6228)" class="st13 st0 st8">A</text>
	<text id="XMLID_133_" transform="matrix(1 0 0 1 129.1946 3070.6165)" class="st10 st0 st8">A</text>
	<text id="XMLID_115_" transform="matrix(1 0 0 1 774.1622 2887.6206)" class="st13 st0 st8">A</text>
	<text id="XMLID_109_" transform="matrix(1 0 0 1 559.6665 2917.6147)" class="st13 st0 st8">A</text>
	<text id="XMLID_125_" transform="matrix(1 0 0 1 759.163 2965.6169)" class="st13 st0 st8">A</text>
	<text id="XMLID_127_" transform="matrix(1 0 0 1 529.668 2998.615)" class="st13 st0 st8">A</text>
	<text id="XMLID_129_" transform="matrix(1 0 0 1 595.6687 3159.1104)" class="st11 st0 st8">A</text>
	<text id="XMLID_131_" transform="matrix(1 0 0 1 702.1662 3127.6118)" class="st13 st0 st8">A</text>
</g>
<g id="mordor">
	<linearGradient id="XMLID_2_" gradientUnits="userSpaceOnUse" x1="399.9998" y1="3390.7202" x2="399.9998" y2="5815.1577">
		<stop  offset="0" style="stop-color:#FFFFFF"/>
		<stop  offset="0.5532" style="stop-color:#242422"/>
		<stop  offset="1" style="stop-color:#000000"/>
		<stop  offset="1" style="stop-color:#000000"/>
	</linearGradient>
	<rect id="XMLID_155_" x="0" y="3390.7" class="st14" width="800" height="2424.4"/>
</g>
</svg>
