<?xml version="1.0" encoding="utf-8"?>
<!-- Generator: Adobe Illustrator 19.0.0, SVG Export Plug-In . SVG Version: 6.00 Build 0)  -->
<svg version="1.1" id="MAMAN" xmlns="http://www.w3.org/2000/svg" xmlns:xlink="http://www.w3.org/1999/xlink" x="0px" y="0px"
	 width="800px" height="5815.2px" viewBox="0 0 800 5815.2" style="enable-background:new 0 0 800 5815.2;" xml:space="preserve">
<style type="text/css">
	.st0{font-family:'Menlo-Regular';}
	.st1{font-size:288.4441px;}
	.st2{font-size:1251.9069px;}
	.st3{fill:#555760;}
	.st4{font-size:345.8784px;}
	.st5{fill:#8288A0;}
	.st6{fill:#A8A8A8;}
	.st7{fill:#97A469;}
	.st8{font-size:80px;}
	.st9{fill:#99B815;}
	.st10{fill:#B27953;}
	.st11{fill:#D8E8C3;}
	.st12{fill:#68934F;}
	.st13{fill:#476949;}
	.st14{fill:url(#XMLID_8_);}
</style>
<g id="ARBRES_GAUCHE">
	<text id="Gauche_1_" transform="matrix(0.2774 0 0.9608 -0.2774 436.1777 318.1248)" class="st0 st1">A</text>
	<text id="Gauche_2_" transform="matrix(0.2774 0 0.9608 -0.2774 510.1777 862.1248)" class="st0 st1">A</text>
	<text id="Gauche_3_" transform="matrix(0.2774 0 0.9608 -0.2774 354.1777 938.1248)" class="st0 st1">A</text>
	<text id="Gauche_4_" transform="matrix(0.2774 0 0.9608 -0.2774 456.1775 998.1248)" class="st0 st1">A</text>
	<g id="Gauche_7_">
		<text id="XMLID_338_" transform="matrix(0.2774 0 0.9608 -0.2774 274.6809 1511.1196)" class="st0 st1">A</text>
	</g>
	<g id="Gauche_8_">
		<text id="XMLID_336_" transform="matrix(0.2774 0 0.9608 -0.2774 162.1865 1580.1162)" class="st0 st1">A</text>
	</g>
	<g id="Gauche_9_">
		<text id="XMLID_334_" transform="matrix(0.2774 0 0.9608 -0.2774 321.1786 1637.1133)" class="st0 st1">A</text>
	</g>
	<g id="Gauche_12_">
		<text id="XMLID_332_" transform="matrix(0.2774 0 0.9608 -0.2774 559.6666 1668.6117)" class="st0 st1">A</text>
	</g>
	<g id="Gauche_13_">
		<text id="XMLID_330_" transform="matrix(0.2774 0 0.9608 -0.2774 660.1616 1599.6152)" class="st0 st1">A</text>
	</g>
	<g id="Gauche_15_">
		<text id="XMLID_328_" transform="matrix(0.2774 0 0.9608 -0.2774 388.6752 1653.6125)" class="st0 st1">A</text>
	</g>
	<g id="Gauche_16_">
		<text id="XMLID_326_" transform="matrix(0.2774 0 0.9608 -0.2774 78.1907 1680.6112)" class="st0 st1">A</text>
	</g>
	<g id="Gauche_17_">
		<text id="XMLID_324_" transform="matrix(0.2774 0 0.9608 -0.2774 -6.916979e-05 1580.1162)" class="st0 st1">A</text>
	</g>
	<g id="Gauche_18_">
		<text id="XMLID_322_" transform="matrix(0.2774 0 0.9608 -0.2774 588.166 1800.6204)" class="st0 st1">A</text>
	</g>
	<g id="Gauche_19_">
		<text id="XMLID_320_" transform="matrix(0.2774 0 0.9608 -0.2774 366.1771 1734.6237)" class="st0 st1">A</text>
	</g>
	<g id="Gauche_20_">
		<text id="XMLID_318_" transform="matrix(0.2774 0 0.9608 -0.2774 768.1569 1680.6112)" class="st0 st1">A</text>
	</g>
	<g id="Gauche_21_">
		<text id="XMLID_316_" transform="matrix(0.2774 0 0.9608 -0.2774 720.1594 1785.6211)" class="st0 st1">A</text>
	</g>
	<g id="Gauche_22_">
		<text id="XMLID_314_" transform="matrix(0.2774 0 0.9608 -0.2774 667.662 1770.6218)" class="st0 st1">A</text>
	</g>
	<g id="Gauche_23_">
		<text id="XMLID_313_" transform="matrix(0.2774 0 0.9608 -0.2774 183.187 1743.6317)" class="st0 st1">A</text>
	</g>
	<g id="Gauche_24_">
		<text id="XMLID_312_" transform="matrix(0.2774 0 0.9608 -0.2774 61.693 1785.6211)" class="st0 st1">A</text>
	</g>
	<g id="Gauche_25_">
		<text id="XMLID_311_" transform="matrix(0.2774 0 0.9608 -0.2774 366.1769 1832.1194)" class="st0 st1">A</text>
	</g>
	<g id="Gauche_26_">
		<text id="XMLID_310_" transform="matrix(0.2774 0 0.9608 -0.2774 303.1777 1919.1249)" class="st0 st1">A</text>
	</g>
	<g id="Gauche_27_">
		<text id="XMLID_309_" transform="matrix(0.2774 0 0.9608 -0.2774 360.1777 1895.1249)" class="st0 st1">A</text>
	</g>
	<g id="Gauche_29_">
		<text id="XMLID_308_" transform="matrix(0.2774 0 0.9608 -0.2774 240.1777 1973.1249)" class="st0 st1">A</text>
	</g>
	<g id="Gauche_30_">
		<text id="XMLID_307_" transform="matrix(0.2774 0 0.9608 -0.2774 651.1694 1926.6259)" class="st0 st1">A</text>
	</g>
	<g id="Gauche_33_">
		<text id="XMLID_306_" transform="matrix(0.2774 0 0.9608 -0.2774 39.1754 1953.6254)" class="st0 st1">A</text>
	</g>
	<g id="Gauche_59_">
		<text id="XMLID_305_" transform="matrix(0.2774 0 0.9608 -0.2774 -22.2965 1881.1259)" class="st0 st1">A</text>
	</g>
	<g id="Gauche_52_">
		<text id="XMLID_304_" transform="matrix(0.2774 0 0.9608 -0.2774 108.1956 1909.626)" class="st0 st1">A</text>
	</g>
	<g id="Gauche_36_">
		<text id="XMLID_303_" transform="matrix(0.2774 0 0.9608 -0.2774 541.6675 1926.6259)" class="st0 st1">A</text>
	</g>
	<g id="Gauche_6_">
		<text id="XMLID_302_" transform="matrix(0.2774 0 0.9608 -0.2774 193.6849 1449.6227)" class="st0 st1">A</text>
	</g>
	<g id="Gauche_11_">
		<text id="XMLID_301_" transform="matrix(0.2774 0 0.9608 -0.2774 541.6675 1352.1276)" class="st0 st1">A</text>
	</g>
	<g id="Gauche_10_">
		<text id="XMLID_300_" transform="matrix(0.2774 0 0.9608 -0.2774 498.1697 1503.62)" class="st0 st1">A</text>
	</g>
	<g id="Gauche_14_">
		<text id="XMLID_299_" transform="matrix(0.2774 0 0.9608 -0.2774 633.163 1496.1204)" class="st0 st1">A</text>
	</g>
	<text id="Gauche_28_" transform="matrix(0.2774 0 0.9608 -0.2774 426.1777 2018.1249)" class="st0 st1">A</text>
	<text id="Gauche_31_" transform="matrix(0.2774 0 0.9608 -0.2774 318.1777 2030.1249)" class="st0 st1">A</text>
	<text id="Gauche_32_" transform="matrix(0.2774 0 0.9608 -0.2774 -2.217577e-04 2088.6238)" class="st0 st1">A</text>
	<text id="Gauche_34_" transform="matrix(0.2774 0 0.9608 -0.2774 510.1776 2154.6206)" class="st0 st1">A</text>
	<text id="Gauche_38_" transform="matrix(0.2774 0 0.9608 -0.2774 624.1701 2221.6204)" class="st0 st1">A</text>
	<text id="Gauche_39_" transform="matrix(0.2774 0 0.9608 -0.2774 690.1668 2281.6177)" class="st0 st1">A</text>
	<text id="Gauche_40_" transform="matrix(0.2774 0 0.9608 -0.2774 702.1662 2367.1133)" class="st0 st1">A</text>
	<text id="Gauche_41_" transform="matrix(0.2774 0 0.9608 -0.2774 660.1616 2469.1082)" class="st0 st1">A</text>
	<text id="Gauche_42_" transform="matrix(0.2774 0 0.9608 -0.2774 609.1705 2545.6045)" class="st0 st1">A</text>
	<text id="Gauche_43_" transform="matrix(0.2774 0 0.9608 -0.2774 240.1772 2584.6116)" class="st0 st1">A</text>
	<text id="Gauche_44_" transform="matrix(0.2774 0 0.9608 -0.2774 61.693 2242.6284)" class="st0 st1">A</text>
	<text id="Gauche_45_" transform="matrix(0.2774 0 0.9608 -0.2774 -4.048632e-04 2319.1245)" class="st0 st1">A</text>
	<text id="Gauche_46_" transform="matrix(0.2774 0 0.9608 -0.2774 16.7002 2409.1201)" class="st0 st1">A</text>
	<text id="Gauche_47_" transform="matrix(0.2774 0 0.9608 -0.2774 61.6928 2475.1167)" class="st0 st1">A</text>
	<text id="Gauche_48_" transform="matrix(0.2774 0 0.9608 -0.2774 129.1946 2533.6138)" class="st0 st1">A</text>
	<text id="Gauche_49_" transform="matrix(0.2774 0 0.9608 -0.2774 247.6887 2154.6204)" class="st0 st1">A</text>
	<text id="Gauche_50_" transform="matrix(0.2774 0 0.9608 -0.2774 609.1706 2136.1338)" class="st0 st1">A</text>
	<text id="Gauche_51_" transform="matrix(0.2774 0 0.9608 -0.2774 108.1956 2067.1372)" class="st0 st1">A</text>
	<text id="Gauche_53_" transform="matrix(0.2774 0 0.9608 -0.2774 366.177 2610.1101)" class="st0 st1">A</text>
	<g id="Gauche_54_">
		<text id="XMLID_287_" transform="matrix(0.2774 0 0.9608 -0.2774 547.6671 2113.6353)" class="st0 st1">A</text>
	</g>
	<text id="Gauche_55_" transform="matrix(0.2774 0 0.9608 -0.2774 -9.968737e-05 2533.6133)" class="st0 st1">A</text>
	<text id="Gauche_56_" transform="matrix(0.2774 0 0.9608 -0.2774 567.1743 2376.1218)" class="st0 st1">A</text>
	<text id="Gauche_57_" transform="matrix(0.2774 0 0.9608 -0.2774 768.1567 2469.1077)" class="st0 st1">A</text>
	<text id="Gauche_58_" transform="matrix(0.2774 0 0.9608 -0.2774 748.6663 2088.6233)" class="st0 st1">A</text>
	<text id="Gauche_35_" transform="matrix(0.2774 0 0.9608 -0.2774 618.1705 2030.1249)" class="st0 st1">A</text>
	<text id="Gauche_37_" transform="matrix(0.2774 0 0.9608 -0.2774 141.1783 2190.616)" class="st0 st1">A</text>
	<text id="Gauche_60_" transform="matrix(0.2774 0 0.9608 -0.2774 595.6687 2739.1233)" class="st0 st1">A</text>
	<text id="Gauche_61_" transform="matrix(0.2774 0 0.9608 -0.2774 225.1872 2713.6248)" class="st0 st1">A</text>
	<text id="Gauche_62_" transform="matrix(0.2774 0 0.9608 -0.2774 108.1954 2866.6169)" class="st0 st1">A</text>
	<text id="Gauche_63_" transform="matrix(0.2774 0 0.9608 -0.2774 595.6686 2647.6279)" class="st0 st1">A</text>
	<text id="Gauche_64_" transform="matrix(0.2774 0 0.9608 -0.2774 366.177 2682.1262)" class="st0 st1">A</text>
	<text id="Gauche_65_" transform="matrix(0.2774 0 0.9608 -0.2774 559.6664 2917.6145)" class="st0 st1">A</text>
	<text id="Gauche_66_" transform="matrix(0.2774 0 0.9608 -0.2774 366.177 2782.626)" class="st0 st1">A</text>
	<text id="Gauche_67_" transform="matrix(0.2774 0 0.9608 -0.2774 711.1653 2782.6257)" class="st0 st1">A</text>
	<text id="Gauche_68_" transform="matrix(0.2774 0 0.9608 -0.2774 774.1622 2887.6204)" class="st0 st1">A</text>
	<text id="Gauche_69_" transform="matrix(0.2774 0 0.9608 -0.2774 730.6644 2682.1257)" class="st0 st1">A</text>
	<text id="Gauche_70_" transform="matrix(0.2774 0 0.9608 -0.2774 702.166 3006.1147)" class="st0 st1">A</text>
	<text id="Gauche_71_" transform="matrix(0.2774 0 0.9608 -0.2774 660.1614 2857.6221)" class="st0 st1">A</text>
	<g id="Gauche_72_">
		<text id="XMLID_207_" transform="matrix(0.2774 0 0.9608 -0.2774 739.6638 2845.6226)" class="st0 st1">A</text>
	</g>
	<text id="Gauche_73_" transform="matrix(0.2774 0 0.9608 -0.2774 759.1629 2965.6167)" class="st0 st1">A</text>
	<text id="Gauche_74_" transform="matrix(0.2774 0 0.9608 -0.2774 529.6679 2998.6147)" class="st0 st1">A</text>
	<text id="Gauche_75_" transform="matrix(0.2774 0 0.9608 -0.2774 595.6686 3159.1101)" class="st0 st1">A</text>
	<text id="Gauche_76_" transform="matrix(0.2774 0 0.9608 -0.2774 702.1661 3127.6116)" class="st0 st1">A</text>
	<text id="Gauche_77_" transform="matrix(0.2774 0 0.9608 -0.2774 129.1945 3070.6162)" class="st0 st1">A</text>
</g>
<g id="MONTAGNES_GAUCHE">
	<text id="XMLID_2_" transform="matrix(0.2774 0 0.9608 -0.2774 498.1703 4518.9146)" class="st0 st2">M</text>
	<text id="XMLID_1_" transform="matrix(0.2774 0 0.9608 -0.2774 720.16 4602.9385)" class="st0 st2">M</text>
	<g id="MONTAGNE">
		<text id="XMLID_6_" transform="matrix(0.2774 0 0.9608 -0.2774 400.0006 4318.8799)" class="st0 st2">M</text>
	</g>
	<g id="MONTAGNE_-_copie">
		<text id="XMLID_5_" transform="matrix(0.2774 0 0.9608 -0.2774 183.1876 4266.9048)" class="st0 st2">M</text>
	</g>
	<g id="MONTAGNE_-_copie_1">
		<text id="XMLID_4_" transform="matrix(0.2774 0 0.9608 -0.2774 61.6933 4722.9424)" class="st0 st2">M</text>
	</g>
	<g id="MONTAGNE_-_copie_2">
		<text id="XMLID_3_" transform="matrix(0.2774 0 0.9608 -0.2774 -72.0642 4401.9185)" class="st0 st2">M</text>
	</g>
	<g id="MONTAGNE_-_copie_3">
	</g>
	<g id="MONTAGNE_-_copie_4">
	</g>
</g>
<g id="TOUTES_MONTAGNES">
	<g id="XMLID_158_">
		<text id="XMLID_286_" transform="matrix(1 0 0 1 61.6926 4722.9424)" class="st3 st0 st4">M</text>
	</g>
	<g id="XMLID_134_">
		<text id="XMLID_283_" transform="matrix(1 0 0 1 399.9998 4318.8799)" class="st5 st0 st4">M</text>
	</g>
	<g id="XMLID_170_">
		<text id="XMLID_282_" transform="matrix(1 0 0 1 183.1869 4266.9048)" class="st3 st0 st4">M</text>
	</g>
	<g id="XMLID_143_">
		<text id="XMLID_281_" transform="matrix(1 0 0 1 -72.065 4401.9185)" class="st6 st0 st4">M</text>
	</g>
	<g id="XMLID_164_">
		<text id="XMLID_278_" transform="matrix(1 0 0 1 720.1592 4602.9385)" class="st3 st0 st4">M</text>
	</g>
	<g id="XMLID_149_">
		<text id="XMLID_276_" transform="matrix(1 0 0 1 498.1696 4518.9146)" class="st6 st0 st4">M</text>
	</g>
</g>
<g id="TOUS_ARBRES">
	<g id="XMLID_15_">
		<text id="XMLID_199_" transform="matrix(1 0 0 1 436.1777 318.125)" class="st7 st0 st8">A</text>
	</g>
	<g id="XMLID_16_">
		<text id="XMLID_202_" transform="matrix(1 0 0 1 510.1777 862.125)" class="st9 st0 st8">A</text>
	</g>
	<g id="XMLID_17_">
		<text id="XMLID_203_" transform="matrix(1 0 0 1 354.1777 938.125)" class="st7 st0 st8">A</text>
	</g>
	<g id="XMLID_18_">
		<text id="XMLID_204_" transform="matrix(1 0 0 1 456.1776 998.125)" class="st10 st0 st8">A</text>
	</g>
	<g id="XMLID_30_">
		<text id="XMLID_231_" transform="matrix(1 0 0 1 78.1908 1680.6113)" class="st11 st0 st8">A</text>
	</g>
	<g id="XMLID_39_">
		<text id="XMLID_236_" transform="matrix(1 0 0 1 366.1769 1832.1195)" class="st12 st0 st8">A</text>
	</g>
	<g id="XMLID_20_">
		<text id="XMLID_275_" transform="matrix(1 0 0 1 193.685 1449.6228)" class="st13 st0 st8">A</text>
	</g>
	<g id="XMLID_24_">
		<text id="XMLID_206_" transform="matrix(1 0 0 1 498.1697 1503.6201)" class="st13 st0 st8">A</text>
	</g>
	<g id="XMLID_25_">
		<text id="XMLID_208_" transform="matrix(1 0 0 1 541.6676 1352.1277)" class="st7 st0 st8">A</text>
	</g>
	<g id="XMLID_21_">
		<text id="XMLID_274_" transform="matrix(1 0 0 1 274.6809 1511.1198)" class="st13 st0 st8">A</text>
	</g>
	<g id="XMLID_28_">
		<text id="XMLID_223_" transform="matrix(1 0 0 1 633.163 1496.1205)" class="st13 st0 st8">A</text>
	</g>
	<g id="XMLID_22_">
		<text id="XMLID_237_" transform="matrix(1 0 0 1 162.1866 1580.1163)" class="st13 st0 st8">A</text>
	</g>
	<g id="XMLID_27_">
		<text id="XMLID_242_" transform="matrix(1 0 0 1 660.1616 1599.6154)" class="st13 st0 st8">A</text>
	</g>
	<g id="XMLID_31_">
		<text id="XMLID_228_" transform="matrix(1 0 0 1 -3.051758e-05 1580.1163)" class="st13 st0 st8">A</text>
	</g>
	<g id="XMLID_34_">
		<text id="XMLID_216_" transform="matrix(1 0 0 1 768.157 1680.6113)" class="st13 st0 st8">A</text>
	</g>
	<g id="XMLID_26_">
		<text id="XMLID_229_" transform="matrix(1 0 0 1 559.6667 1668.6118)" class="st13 st0 st8">A</text>
	</g>
	<g id="XMLID_29_">
		<text id="XMLID_232_" transform="matrix(1 0 0 1 388.6752 1653.6127)" class="st13 st0 st8">A</text>
	</g>
	<g id="XMLID_23_">
		<text id="XMLID_235_" transform="matrix(1 0 0 1 321.1786 1637.1134)" class="st13 st0 st8">A</text>
	</g>
	<g id="XMLID_37_">
		<text id="XMLID_240_" transform="matrix(1 0 0 1 183.187 1743.6318)" class="st11 st0 st8">A</text>
	</g>
	<g id="XMLID_32_">
		<text id="XMLID_241_" transform="matrix(1 0 0 1 588.166 1800.6205)" class="st10 st0 st8">A</text>
	</g>
	<g id="XMLID_33_">
		<text id="XMLID_247_" transform="matrix(1 0 0 1 366.1771 1734.6238)" class="st9 st0 st8">A</text>
	</g>
	<g id="XMLID_35_">
		<text id="XMLID_252_" transform="matrix(1 0 0 1 720.1594 1785.6212)" class="st13 st0 st8">A</text>
	</g>
	<g id="XMLID_36_">
		<text id="XMLID_243_" transform="matrix(1 0 0 1 667.662 1770.6219)" class="st13 st0 st8">A</text>
	</g>
	<g id="XMLID_38_">
		<text id="XMLID_245_" transform="matrix(1 0 0 1 61.6931 1785.6212)" class="st13 st0 st8">A</text>
	</g>
	<g id="XMLID_40_">
		<text id="XMLID_248_" transform="matrix(1 0 0 1 303.1777 1919.125)" class="st13 st0 st8">A</text>
	</g>
	<g id="XMLID_41_">
		<text id="XMLID_250_" transform="matrix(1 0 0 1 360.1777 1895.125)" class="st13 st0 st8">A</text>
	</g>
	<g id="XMLID_42_">
		<text id="XMLID_257_" transform="matrix(1 0 0 1 426.1777 2018.125)" class="st13 st0 st8">A</text>
	</g>
	<g id="XMLID_43_">
		<text id="XMLID_262_" transform="matrix(1 0 0 1 240.1777 1973.125)" class="st13 st0 st8">A</text>
	</g>
	<g id="XMLID_44_">
		<text id="XMLID_246_" transform="matrix(1 0 0 1 651.1694 1926.626)" class="st9 st0 st8">A</text>
	</g>
	<g id="XMLID_45_">
		<text id="XMLID_249_" transform="matrix(1 0 0 1 318.1777 2030.125)" class="st13 st0 st8">A</text>
	</g>
	<g id="XMLID_46_">
		<text id="XMLID_254_" transform="matrix(1 0 0 1 -1.831055e-04 2088.624)" class="st13 st0 st8">A</text>
	</g>
	<g id="XMLID_47_">
		<text id="XMLID_255_" transform="matrix(1 0 0 1 39.1755 1953.6255)" class="st12 st0 st8">A</text>
	</g>
	<g id="XMLID_48_">
		<text id="XMLID_260_" transform="matrix(1 0 0 1 510.1777 2154.6208)" class="st13 st0 st8">A</text>
	</g>
	<g id="XMLID_77_">
		<text id="XMLID_253_" transform="matrix(1 0 0 1 247.6887 2154.6206)" class="st9 st0 st8">A</text>
	</g>
	<g id="XMLID_79_">
		<text id="XMLID_258_" transform="matrix(1 0 0 1 609.1707 2136.134)" class="st13 st0 st8">A</text>
	</g>
	<g id="XMLID_81_">
		<text id="XMLID_233_" transform="matrix(1 0 0 1 108.1957 2067.1375)" class="st9 st0 st8">A</text>
	</g>
	<g id="XMLID_87_">
		<text id="XMLID_238_" transform="matrix(1 0 0 1 547.6671 2113.6353)" class="st13 st0 st8">A</text>
	</g>
	<g id="XMLID_95_">
		<text id="XMLID_256_" transform="matrix(1 0 0 1 748.6664 2088.6235)" class="st13 st0 st8">A</text>
	</g>
	<g id="XMLID_49_">
		<text id="XMLID_234_" transform="matrix(1 0 0 1 618.1705 2030.125)" class="st11 st0 st8">A</text>
	</g>
	<g id="XMLID_50_">
		<text id="XMLID_244_" transform="matrix(1 0 0 1 541.6675 1926.626)" class="st10 st0 st8">A</text>
	</g>
	<g id="XMLID_51_">
		<text id="XMLID_261_" transform="matrix(1 0 0 1 141.1783 2190.6162)" class="st9 st0 st8">A</text>
	</g>
	<g id="XMLID_97_">
		<text id="XMLID_263_" transform="matrix(1 0 0 1 -22.2964 1881.126)" class="st13 st0 st8">A</text>
	</g>
	<g id="XMLID_83_">
		<text id="XMLID_273_" transform="matrix(1 0 0 1 108.1956 1909.6261)" class="st9 st0 st8">A</text>
	</g>
	<g id="XMLID_55_">
		<text id="XMLID_265_" transform="matrix(1 0 0 1 624.1702 2221.6206)" class="st11 st0 st8">A</text>
	</g>
	<g id="XMLID_57_">
		<text id="XMLID_266_" transform="matrix(1 0 0 1 690.1669 2281.6179)" class="st10 st0 st8">A</text>
	</g>
	<g id="XMLID_59_">
		<text id="XMLID_270_" transform="matrix(1 0 0 1 702.1663 2367.1135)" class="st13 st0 st8">A</text>
	</g>
	<g id="XMLID_61_">
		<text id="XMLID_268_" transform="matrix(1 0 0 1 660.1616 2469.1084)" class="st13 st0 st8">A</text>
	</g>
	<g id="XMLID_63_">
		<text id="XMLID_271_" transform="matrix(1 0 0 1 609.1705 2545.6047)" class="st13 st0 st8">A</text>
	</g>
	<g id="XMLID_65_">
		<text id="XMLID_272_" transform="matrix(1 0 0 1 240.1772 2584.6118)" class="st13 st0 st8">A</text>
	</g>
	<g id="XMLID_67_">
		<text id="XMLID_267_" transform="matrix(1 0 0 1 61.693 2242.6287)" class="st13 st0 st8">A</text>
	</g>
	<g id="XMLID_69_">
		<text id="XMLID_269_" transform="matrix(1 0 0 1 -3.662109e-04 2319.1248)" class="st13 st0 st8">A</text>
	</g>
	<g id="XMLID_71_">
		<text id="XMLID_218_" transform="matrix(1 0 0 1 16.7002 2409.1204)" class="st10 st0 st8">A</text>
	</g>
	<g id="XMLID_73_">
		<text id="XMLID_259_" transform="matrix(1 0 0 1 61.6928 2475.1169)" class="st11 st0 st8">A</text>
	</g>
	<g id="XMLID_75_">
		<text id="XMLID_264_" transform="matrix(1 0 0 1 129.1946 2533.614)" class="st13 st0 st8">A</text>
	</g>
	<g id="XMLID_85_">
		<text id="XMLID_239_" transform="matrix(1 0 0 1 366.177 2610.1104)" class="st13 st0 st8">A</text>
	</g>
	<g id="XMLID_89_">
		<text id="XMLID_251_" transform="matrix(1 0 0 1 -6.103516e-05 2533.6135)" class="st13 st0 st8">A</text>
	</g>
	<g id="XMLID_91_">
		<text id="XMLID_210_" transform="matrix(1 0 0 1 567.1744 2376.1221)" class="st10 st0 st8">A</text>
	</g>
	<g id="XMLID_93_">
		<text id="XMLID_213_" transform="matrix(1 0 0 1 768.1568 2469.1079)" class="st13 st0 st8">A</text>
	</g>
	<g id="XMLID_99_">
		<text id="XMLID_209_" transform="matrix(1 0 0 1 595.6688 2739.1235)" class="st10 st0 st8">A</text>
	</g>
	<g id="XMLID_101_">
		<text id="XMLID_201_" transform="matrix(1 0 0 1 225.1873 2713.625)" class="st13 st0 st8">A</text>
	</g>
	<g id="XMLID_103_">
		<text id="XMLID_187_" transform="matrix(1 0 0 1 108.1954 2866.6172)" class="st13 st0 st8">A</text>
	</g>
	<g id="XMLID_105_">
		<text id="XMLID_173_" transform="matrix(1 0 0 1 595.6687 2647.6282)" class="st13 st0 st8">A</text>
	</g>
	<g id="XMLID_107_">
		<text id="XMLID_171_" transform="matrix(1 0 0 1 366.177 2682.1265)" class="st13 st0 st8">A</text>
	</g>
	<g id="XMLID_111_">
		<text id="XMLID_167_" transform="matrix(1 0 0 1 366.177 2782.6262)" class="st13 st0 st8">A</text>
	</g>
	<g id="XMLID_113_">
		<text id="XMLID_162_" transform="matrix(1 0 0 1 711.1654 2782.626)" class="st13 st0 st8">A</text>
	</g>
	<g id="XMLID_117_">
		<text id="XMLID_156_" transform="matrix(1 0 0 1 730.6644 2682.126)" class="st10 st0 st8">A</text>
	</g>
	<g id="XMLID_119_">
		<text id="XMLID_141_" transform="matrix(1 0 0 1 702.1661 3006.115)" class="st13 st0 st8">A</text>
	</g>
	<g id="XMLID_121_">
		<text id="XMLID_130_" transform="matrix(1 0 0 1 660.1614 2857.6223)" class="st13 st0 st8">A</text>
	</g>
	<g id="XMLID_123_">
		<text id="XMLID_94_" transform="matrix(1 0 0 1 739.6639 2845.6228)" class="st13 st0 st8">A</text>
	</g>
	<g id="XMLID_133_">
		<text id="XMLID_142_" transform="matrix(1 0 0 1 129.1946 3070.6165)" class="st10 st0 st8">A</text>
	</g>
	<g id="XMLID_115_">
		<text id="XMLID_157_" transform="matrix(1 0 0 1 774.1622 2887.6206)" class="st13 st0 st8">A</text>
	</g>
	<g id="XMLID_109_">
		<text id="XMLID_225_" transform="matrix(1 0 0 1 559.6665 2917.6147)" class="st13 st0 st8">A</text>
	</g>
	<g id="XMLID_125_">
		<text id="XMLID_230_" transform="matrix(1 0 0 1 759.163 2965.6169)" class="st13 st0 st8">A</text>
	</g>
	<g id="XMLID_127_">
		<text id="XMLID_279_" transform="matrix(1 0 0 1 529.668 2998.615)" class="st13 st0 st8">A</text>
	</g>
	<g id="XMLID_129_">
		<text id="XMLID_280_" transform="matrix(1 0 0 1 595.6687 3159.1104)" class="st11 st0 st8">A</text>
	</g>
	<g id="XMLID_131_">
		<text id="XMLID_284_" transform="matrix(1 0 0 1 702.1662 3127.6118)" class="st13 st0 st8">A</text>
	</g>
</g>
<g id="mordor">
	<linearGradient id="XMLID_8_" gradientUnits="userSpaceOnUse" x1="399.9998" y1="3390.7202" x2="399.9998" y2="5815.1577">
		<stop  offset="0" style="stop-color:#FFFFFF"/>
		<stop  offset="0.5532" style="stop-color:#242422"/>
		<stop  offset="1" style="stop-color:#000000"/>
		<stop  offset="1" style="stop-color:#000000"/>
	</linearGradient>
	<rect id="XMLID_155_" x="0" y="3390.7" class="st14" width="800" height="2424.4"/>
</g>
</svg>
