<?xml version="1.0" encoding="utf-8"?>
<!-- Generator: Adobe Illustrator 22.0.0, SVG Export Plug-In . SVG Version: 6.00 Build 0)  -->
<svg version="1.1" id="MAMAN" xmlns="http://www.w3.org/2000/svg" xmlns:xlink="http://www.w3.org/1999/xlink" x="0px" y="0px"
	 viewBox="0 0 800 6591.2" style="enable-background:new 0 0 800 6591.2;" xml:space="preserve">
<style type="text/css">
	.st0{font-family:'Menlo-Regular';}
	.st1{font-size:1251.9069px;}
	.st2{fill:#555760;}
	.st3{font-size:345.8784px;}
	.st4{fill:#8288A0;}
	.st5{fill:#A8A8A8;}
	.st6{font-size:288.4441px;}
	.st7{fill:#97A469;}
	.st8{font-size:80px;}
	.st9{fill:#99B815;}
	.st10{fill:#B27953;}
	.st11{fill:#476949;}
	.st12{fill:#D8E8C3;}
	.st13{fill:#68934F;}
	.st14{fill:url(#mooordor_1_);}
</style>
<g id="MONTAGNES_OMBRE_GAUCHE">
	<text id="OMG1" transform="matrix(0.2774 0 0.9608 -0.2774 183.1586 5042.9023)" class="st0 st1">M</text>
	<text id="OMG2" transform="matrix(0.2774 0 0.9608 -0.2774 399.9716 5094.877)" class="st0 st1">M</text>
	<text id="OMG3" transform="matrix(0.2774 0 0.9608 -0.2774 -72.0933 5177.916)" class="st0 st1">M</text>
	<text id="OMG4" transform="matrix(0.2774 0 0.9608 -0.2774 498.1413 5294.9121)" class="st0 st1">M</text>
	<text id="OMG5" transform="matrix(0.2774 0 0.9608 -0.2774 720.1309 5378.936)" class="st0 st1">M</text>
	<text id="OMG6" transform="matrix(0.2774 0 0.9608 -0.2774 61.6643 5498.9399)" class="st0 st1">M</text>
</g>
<g id="MONTAGNES_TOUTES">
	<text id="M1_1_" transform="matrix(1 0 0 1 183.1869 5042.9048)" class="st2 st0 st3">M</text>
	<text id="M2" transform="matrix(1 0 0 1 399.9998 5094.8799)" class="st4 st0 st3">M</text>
	<text id="M3" transform="matrix(1 0 0 1 -72.065 5177.9185)" class="st5 st0 st3">M</text>
	<text id="M4" transform="matrix(1 0 0 1 498.1696 5294.9146)" class="st5 st0 st3">M</text>
	<text id="M5" transform="matrix(1 0 0 1 720.1592 5378.9385)" class="st2 st0 st3">M</text>
	<text id="M6" transform="matrix(1 0 0 1 61.6926 5498.9424)" class="st2 st0 st3">M</text>
</g>
<g id="ARBRES_OMBRE_GAUCHE">
	<text id="G1" transform="matrix(0.2774 0 0.9608 -0.2774 436.1614 1094.1234)" class="st0 st6">A</text>
	<text id="G2" transform="matrix(0.2774 0 0.9608 -0.2774 510.1614 1638.1234)" class="st0 st6">A</text>
	<text id="G3" transform="matrix(0.2774 0 0.9608 -0.2774 354.1614 1714.1234)" class="st0 st6">A</text>
	<text id="G4" transform="matrix(0.2774 0 0.9608 -0.2774 456.1613 1774.1234)" class="st0 st6">A</text>
	<text id="G5" transform="matrix(0.2774 0 0.9608 -0.2774 541.6513 2128.126)" class="st0 st6">A</text>
	<text id="G6" transform="matrix(0.2774 0 0.9608 -0.2774 193.6687 2225.6211)" class="st0 st6">A</text>
	<text id="G7" transform="matrix(0.2774 0 0.9608 -0.2774 633.1467 2272.1189)" class="st0 st6">A</text>
	<text id="G8" transform="matrix(0.2774 0 0.9608 -0.2774 498.1535 2279.6184)" class="st0 st6">A</text>
	<text id="G9" transform="matrix(0.2774 0 0.9608 -0.2774 274.6646 2287.1182)" class="st0 st6">A</text>
	<text id="G10" transform="matrix(0.2774 0 0.9608 -0.2774 162.1703 2356.1147)" class="st0 st6">A</text>
	<text id="G11" transform="matrix(0.2774 0 0.9608 -0.2774 -1.632369e-02 2356.1147)" class="st0 st6">A</text>
	<text id="G12" transform="matrix(0.2774 0 0.9608 -0.2774 660.1454 2375.6138)" class="st0 st6">A</text>
	<text id="G13" transform="matrix(0.2774 0 0.9608 -0.2774 321.1623 2413.1118)" class="st0 st6">A</text>
	<text id="G14" transform="matrix(0.2774 0 0.9608 -0.2774 388.6589 2429.6111)" class="st0 st6">A</text>
	<text id="G15" transform="matrix(0.2774 0 0.9608 -0.2774 559.6504 2444.6101)" class="st0 st6">A</text>
	<text id="G16" transform="matrix(0.2774 0 0.9608 -0.2774 78.1745 2456.6096)" class="st0 st6">A</text>
	<text id="G17" transform="matrix(0.2774 0 0.9608 -0.2774 768.1407 2456.6096)" class="st0 st6">A</text>
	<text id="G18" transform="matrix(0.2774 0 0.9608 -0.2774 366.1608 2510.6221)" class="st0 st6">A</text>
	<text id="G19" transform="matrix(0.2774 0 0.9608 -0.2774 183.1707 2519.6301)" class="st0 st6">A</text>
	<text id="G20" transform="matrix(0.2774 0 0.9608 -0.2774 667.6458 2546.6204)" class="st0 st6">A</text>
	<text id="G21" transform="matrix(0.2774 0 0.9608 -0.2774 61.6768 2561.6196)" class="st0 st6">A</text>
	<text id="G22" transform="matrix(0.2774 0 0.9608 -0.2774 720.1431 2561.6196)" class="st0 st6">A</text>
	<text id="G23" transform="matrix(0.2774 0 0.9608 -0.2774 588.1497 2576.6189)" class="st0 st6">A</text>
	<text id="G24" transform="matrix(0.2774 0 0.9608 -0.2774 366.1606 2608.1179)" class="st0 st6">A</text>
	<text id="G25" transform="matrix(0.2774 0 0.9608 -0.2774 -22.3127 2657.1243)" class="st0 st6">A</text>
	<text id="G26" transform="matrix(0.2774 0 0.9608 -0.2774 108.1793 2685.6245)" class="st0 st6">A</text>
	<text id="G27" transform="matrix(0.2774 0 0.9608 -0.2774 360.1614 2671.1233)" class="st0 st6">A</text>
	<text id="G28" transform="matrix(0.2774 0 0.9608 -0.2774 303.1614 2695.1233)" class="st0 st6">A</text>
	<text id="G29" transform="matrix(0.2774 0 0.9608 -0.2774 541.6512 2702.6243)" class="st0 st6">A</text>
	<text id="G30" transform="matrix(0.2774 0 0.9608 -0.2774 651.1532 2702.6243)" class="st0 st6">A</text>
	<text id="G31" transform="matrix(0.2774 0 0.9608 -0.2774 39.1592 2729.6238)" class="st0 st6">A</text>
	<text id="G32" transform="matrix(0.2774 0 0.9608 -0.2774 240.1614 2749.1233)" class="st0 st6">A</text>
	<text id="G33" transform="matrix(0.2774 0 0.9608 -0.2774 426.1614 2794.1233)" class="st0 st6">A</text>
	<text id="G34" transform="matrix(0.2774 0 0.9608 -0.2774 318.1614 2806.1233)" class="st0 st6">A</text>
	<text id="G35" transform="matrix(0.2774 0 0.9608 -0.2774 618.1542 2806.1233)" class="st0 st6">A</text>
	<text id="G36" transform="matrix(0.2774 0 0.9608 -0.2774 108.1794 2843.1357)" class="st0 st6">A</text>
	<text id="G37" transform="matrix(0.2774 0 0.9608 -0.2774 -1.647627e-02 2864.6223)" class="st0 st6">A</text>
	<text id="G38" transform="matrix(0.2774 0 0.9608 -0.2774 547.6508 2889.6338)" class="st0 st6">A</text>
	<text id="G39" transform="matrix(0.2774 0 0.9608 -0.2774 609.1544 2912.1323)" class="st0 st6">A</text>
	<text id="G40" transform="matrix(0.2774 0 0.9608 -0.2774 748.65 2864.6218)" class="st0 st6">A</text>
	<text id="G41" transform="matrix(0.2774 0 0.9608 -0.2774 247.6724 2930.6189)" class="st0 st6">A</text>
	<text id="G42" transform="matrix(0.2774 0 0.9608 -0.2774 510.1614 2930.6191)" class="st0 st6">A</text>
	<text id="G43" transform="matrix(0.2774 0 0.9608 -0.2774 141.162 2966.6145)" class="st0 st6">A</text>
	<text id="G44" transform="matrix(0.2774 0 0.9608 -0.2774 624.1539 2997.6189)" class="st0 st6">A</text>
	<text id="G45" transform="matrix(0.2774 0 0.9608 -0.2774 61.6767 3018.627)" class="st0 st6">A</text>
	<text id="G46" transform="matrix(0.2774 0 0.9608 -0.2774 690.1506 3057.6162)" class="st0 st6">A</text>
	<text id="G47" transform="matrix(0.2774 0 0.9608 -0.2774 -1.665938e-02 3095.123)" class="st0 st6">A</text>
	<text id="G48" transform="matrix(0.2774 0 0.9608 -0.2774 702.15 3143.1118)" class="st0 st6">A</text>
	<text id="G49" transform="matrix(0.2774 0 0.9608 -0.2774 567.1581 3152.1204)" class="st0 st6">A</text>
	<text id="G50" transform="matrix(0.2774 0 0.9608 -0.2774 16.6839 3185.1187)" class="st0 st6">A</text>
	<text id="G51" transform="matrix(0.2774 0 0.9608 -0.2774 660.1453 3245.1067)" class="st0 st6">A</text>
	<text id="G52" transform="matrix(0.2774 0 0.9608 -0.2774 768.1405 3245.1062)" class="st0 st6">A</text>
	<text id="G53" transform="matrix(0.2774 0 0.9608 -0.2774 61.6765 3251.1152)" class="st0 st6">A</text>
	<text id="G54" transform="matrix(0.2774 0 0.9608 -0.2774 -1.635420e-02 3309.6118)" class="st0 st6">A</text>
	<text id="G55" transform="matrix(0.2774 0 0.9608 -0.2774 129.1783 3309.6123)" class="st0 st6">A</text>
	<text id="G56" transform="matrix(0.2774 0 0.9608 -0.2774 609.1543 3321.603)" class="st0 st6">A</text>
	<text id="G57" transform="matrix(0.2774 0 0.9608 -0.2774 240.1609 3360.6101)" class="st0 st6">A</text>
	<text id="G58" transform="matrix(0.2774 0 0.9608 -0.2774 366.1607 3386.1086)" class="st0 st6">A</text>
	<text id="G59" transform="matrix(0.2774 0 0.9608 -0.2774 595.6524 3423.6265)" class="st0 st6">A</text>
	<text id="G60" transform="matrix(0.2774 0 0.9608 -0.2774 366.1607 3458.1248)" class="st0 st6">A</text>
	<text id="G61" transform="matrix(0.2774 0 0.9608 -0.2774 730.6481 3458.1243)" class="st0 st6">A</text>
	<text id="G62" transform="matrix(0.2774 0 0.9608 -0.2774 225.171 3489.6233)" class="st0 st6">A</text>
	<text id="G63" transform="matrix(0.2774 0 0.9608 -0.2774 595.6525 3515.1218)" class="st0 st6">A</text>
	<text id="G64" transform="matrix(0.2774 0 0.9608 -0.2774 366.1607 3558.6245)" class="st0 st6">A</text>
	<text id="G65" transform="matrix(0.2774 0 0.9608 -0.2774 711.1491 3558.6243)" class="st0 st6">A</text>
	<text id="G66" transform="matrix(0.2774 0 0.9608 -0.2774 739.6476 3621.6211)" class="st0 st6">A</text>
	<text id="G67" transform="matrix(0.2774 0 0.9608 -0.2774 660.1451 3633.6206)" class="st0 st6">A</text>
	<text id="G68" transform="matrix(0.2774 0 0.9608 -0.2774 108.1791 3642.6155)" class="st0 st6">A</text>
	<text id="G69" transform="matrix(0.2774 0 0.9608 -0.2774 774.1459 3663.6189)" class="st0 st6">A</text>
	<text id="G70" transform="matrix(0.2774 0 0.9608 -0.2774 559.6502 3693.613)" class="st0 st6">A</text>
	<text id="G71" transform="matrix(0.2774 0 0.9608 -0.2774 759.1467 3741.6152)" class="st0 st6">A</text>
	<text id="G72" transform="matrix(0.2774 0 0.9608 -0.2774 529.6517 3774.6133)" class="st0 st6">A</text>
	<text id="G73" transform="matrix(0.2774 0 0.9608 -0.2774 702.1498 3782.1133)" class="st0 st6">A</text>
	<text id="G74" transform="matrix(0.2774 0 0.9608 -0.2774 129.1783 3846.6147)" class="st0 st6">A</text>
	<text id="G75" transform="matrix(0.2774 0 0.9608 -0.2774 702.1499 3903.6101)" class="st0 st6">A</text>
	<text id="G76" transform="matrix(0.2774 0 0.9608 -0.2774 595.6524 3935.1086)" class="st0 st6">A</text>
</g>
<g id="ARBRES_TOUS">
	<text id="A1" transform="matrix(1 0 0 1 436.1777 1094.125)" class="st7 st0 st8">A</text>
	<text id="A2" transform="matrix(1 0 0 1 510.1777 1638.125)" class="st9 st0 st8">A</text>
	<text id="A3" transform="matrix(1 0 0 1 354.1777 1714.125)" class="st7 st0 st8">A</text>
	<text id="A4" transform="matrix(1 0 0 1 456.1776 1774.125)" class="st10 st0 st8">A</text>
	<text id="A5" transform="matrix(1 0 0 1 541.6676 2128.1277)" class="st7 st0 st8">A</text>
	<text id="A6" transform="matrix(1 0 0 1 193.685 2225.6228)" class="st11 st0 st8">A</text>
	<text id="A7" transform="matrix(1 0 0 1 633.163 2272.1206)" class="st11 st0 st8">A</text>
	<text id="A8" transform="matrix(1 0 0 1 498.1697 2279.6201)" class="st11 st0 st8">A</text>
	<text id="A9" transform="matrix(1 0 0 1 274.6809 2287.1199)" class="st11 st0 st8">A</text>
	<text id="A10" transform="matrix(1 0 0 1 162.1866 2356.1165)" class="st11 st0 st8">A</text>
	<text id="A11" transform="matrix(1 0 0 1 -3.051758e-05 2356.1165)" class="st11 st0 st8">A</text>
	<text id="A12" transform="matrix(1 0 0 1 660.1616 2375.6155)" class="st11 st0 st8">A</text>
	<text id="A13" transform="matrix(1 0 0 1 321.1786 2413.1135)" class="st11 st0 st8">A</text>
	<text id="A14" transform="matrix(1 0 0 1 388.6752 2429.6128)" class="st11 st0 st8">A</text>
	<text id="A15" transform="matrix(1 0 0 1 559.6667 2444.6118)" class="st11 st0 st8">A</text>
	<text id="A16" transform="matrix(1 0 0 1 78.1908 2456.6113)" class="st12 st0 st8">A</text>
	<text id="A17" transform="matrix(1 0 0 1 768.157 2456.6113)" class="st11 st0 st8">A</text>
	<text id="A18" transform="matrix(1 0 0 1 366.1771 2510.6238)" class="st9 st0 st8">A</text>
	<text id="A19" transform="matrix(1 0 0 1 183.187 2519.6318)" class="st12 st0 st8">A</text>
	<text id="A20" transform="matrix(1 0 0 1 667.662 2546.6221)" class="st11 st0 st8">A</text>
	<text id="A21" transform="matrix(1 0 0 1 61.6931 2561.6213)" class="st11 st0 st8">A</text>
	<text id="A22" transform="matrix(1 0 0 1 720.1594 2561.6213)" class="st11 st0 st8">A</text>
	<text id="A23" transform="matrix(1 0 0 1 588.166 2576.6206)" class="st10 st0 st8">A</text>
	<text id="A24" transform="matrix(1 0 0 1 366.1769 2608.1196)" class="st13 st0 st8">A</text>
	<text id="A25" transform="matrix(1 0 0 1 -22.2964 2657.126)" class="st11 st0 st8">A</text>
	<text id="A26" transform="matrix(1 0 0 1 108.1956 2685.6262)" class="st9 st0 st8">A</text>
	<text id="A27" transform="matrix(1 0 0 1 360.1777 2671.125)" class="st11 st0 st8">A</text>
	<text id="A28" transform="matrix(1 0 0 1 303.1777 2695.125)" class="st11 st0 st8">A</text>
	<text id="A29" transform="matrix(1 0 0 1 541.6675 2702.626)" class="st10 st0 st8">A</text>
	<text id="A30" transform="matrix(1 0 0 1 651.1694 2702.626)" class="st9 st0 st8">A</text>
	<text id="A31" transform="matrix(1 0 0 1 39.1755 2729.6255)" class="st13 st0 st8">A</text>
	<text id="A32" transform="matrix(1 0 0 1 240.1777 2749.125)" class="st11 st0 st8">A</text>
	<text id="A33" transform="matrix(1 0 0 1 426.1777 2794.125)" class="st11 st0 st8">A</text>
	<text id="A34" transform="matrix(1 0 0 1 318.1777 2806.125)" class="st11 st0 st8">A</text>
	<text id="A35" transform="matrix(1 0 0 1 618.1705 2806.125)" class="st12 st0 st8">A</text>
	<text id="A36" transform="matrix(1 0 0 1 108.1957 2843.1375)" class="st9 st0 st8">A</text>
	<text id="A37" transform="matrix(1 0 0 1 -1.831055e-04 2864.624)" class="st11 st0 st8">A</text>
	<text id="A38" transform="matrix(1 0 0 1 547.6671 2889.6355)" class="st11 st0 st8">A</text>
	<text id="A39" transform="matrix(1 0 0 1 609.1707 2912.134)" class="st11 st0 st8">A</text>
	<text id="A40" transform="matrix(1 0 0 1 748.6664 2864.6235)" class="st11 st0 st8">A</text>
	<text id="A41" transform="matrix(1 0 0 1 247.6887 2930.6206)" class="st9 st0 st8">A</text>
	<text id="A42" transform="matrix(1 0 0 1 510.1777 2930.6208)" class="st11 st0 st8">A</text>
	<text id="A43" transform="matrix(1 0 0 1 141.1783 2966.6162)" class="st9 st0 st8">A</text>
	<text id="A44" transform="matrix(1 0 0 1 624.1702 2997.6206)" class="st12 st0 st8">A</text>
	<text id="A45" transform="matrix(1 0 0 1 61.693 3018.6287)" class="st11 st0 st8">A</text>
	<text id="A46" transform="matrix(1 0 0 1 690.1669 3057.6179)" class="st10 st0 st8">A</text>
	<text id="A47" transform="matrix(1 0 0 1 -3.662109e-04 3095.1248)" class="st11 st0 st8">A</text>
	<text id="A48" transform="matrix(1 0 0 1 702.1663 3143.1135)" class="st11 st0 st8">A</text>
	<text id="A49" transform="matrix(1 0 0 1 567.1744 3152.1221)" class="st10 st0 st8">A</text>
	<text id="A50" transform="matrix(1 0 0 1 16.7002 3185.1204)" class="st10 st0 st8">A</text>
	<text id="A51" transform="matrix(1 0 0 1 660.1616 3245.1084)" class="st11 st0 st8">A</text>
	<text id="A52" transform="matrix(1 0 0 1 768.1568 3245.1079)" class="st11 st0 st8">A</text>
	<text id="A53" transform="matrix(1 0 0 1 61.6928 3251.1169)" class="st12 st0 st8">A</text>
	<text id="A54" transform="matrix(1 0 0 1 -6.103516e-05 3309.6135)" class="st11 st0 st8">A</text>
	<text id="A55" transform="matrix(1 0 0 1 129.1946 3309.614)" class="st11 st0 st8">A</text>
	<text id="A56" transform="matrix(1 0 0 1 609.1705 3321.6047)" class="st11 st0 st8">A</text>
	<text id="A57" transform="matrix(1 0 0 1 240.1772 3360.6118)" class="st11 st0 st8">A</text>
	<text id="A58" transform="matrix(1 0 0 1 366.177 3386.1104)" class="st11 st0 st8">A</text>
	<text id="A59" transform="matrix(1 0 0 1 595.6687 3423.6282)" class="st11 st0 st8">A</text>
	<text id="A60" transform="matrix(1 0 0 1 366.177 3458.1265)" class="st11 st0 st8">A</text>
	<text id="A61" transform="matrix(1 0 0 1 730.6644 3458.126)" class="st10 st0 st8">A</text>
	<text id="A62" transform="matrix(1 0 0 1 225.1873 3489.625)" class="st11 st0 st8">A</text>
	<text id="A63" transform="matrix(1 0 0 1 595.6688 3515.1235)" class="st10 st0 st8">A</text>
	<text id="A64" transform="matrix(1 0 0 1 366.177 3558.6262)" class="st11 st0 st8">A</text>
	<text id="A65" transform="matrix(1 0 0 1 711.1654 3558.626)" class="st11 st0 st8">A</text>
	<text id="A66" transform="matrix(1 0 0 1 739.6639 3621.6228)" class="st11 st0 st8">A</text>
	<text id="A67" transform="matrix(1 0 0 1 660.1614 3633.6223)" class="st11 st0 st8">A</text>
	<text id="A68" transform="matrix(1 0 0 1 108.1954 3642.6172)" class="st11 st0 st8">A</text>
	<text id="A69" transform="matrix(1 0 0 1 774.1622 3663.6206)" class="st11 st0 st8">A</text>
	<text id="A70" transform="matrix(1 0 0 1 559.6665 3693.6147)" class="st11 st0 st8">A</text>
	<text id="A71" transform="matrix(1 0 0 1 759.163 3741.6169)" class="st11 st0 st8">A</text>
	<text id="A72" transform="matrix(1 0 0 1 529.668 3774.615)" class="st11 st0 st8">A</text>
	<text id="A73" transform="matrix(1 0 0 1 702.1661 3782.115)" class="st11 st0 st8">A</text>
	<text id="A74" transform="matrix(1 0 0 1 129.1946 3846.6165)" class="st10 st0 st8">A</text>
	<text id="A75" transform="matrix(1 0 0 1 702.1662 3903.6118)" class="st11 st0 st8">A</text>
	<text id="A76" transform="matrix(1 0 0 1 595.6687 3935.1104)" class="st12 st0 st8">A</text>
</g>
<g id="mordor">
	<linearGradient id="mooordor_1_" gradientUnits="userSpaceOnUse" x1="399.9998" y1="4166.7202" x2="399.9998" y2="6591.1577">
		<stop  offset="0" style="stop-color:#FFFFFF"/>
		<stop  offset="0.5532" style="stop-color:#242422"/>
		<stop  offset="1" style="stop-color:#000000"/>
		<stop  offset="1" style="stop-color:#000000"/>
	</linearGradient>
	<rect id="mooordor" x="0" y="4166.7" class="st14" width="800" height="2424.4"/>
</g>
</svg>
